<svg width="581" height="251" viewBox="0 0 581 251" fill="none" xmlns="http://www.w3.org/2000/svg">
<path d="M292.515 42.7301H348.437V46.745H340.981L314.311 138.515H319.759V146.545H264.698V138.515H272.727L298.538 47.3186H292.515V42.7301Z" fill="#003F19"/>
<path d="M354.747 42.7301H410.669V46.745H403.212L376.542 138.515H381.991V146.545H326.929V138.515H334.959L360.769 47.3186H354.747V42.7301Z" fill="#003F19"/>
<path d="M281.044 42.7301L219.96 40.7227L184.973 56.4956L169.773 113.278L193.003 144.25H250.932L260.97 108.403L198.165 138.515L219.96 46.745L269.573 79.438L281.044 42.7301Z" fill="#003F19"/>
<rect x="143.676" y="3.15458" width="293.089" height="180.671" rx="21.5085" stroke="#003F19" stroke-width="6.30916"/>
<path d="M14.6831 242.18C11.9912 242.18 9.73982 241.617 7.9289 240.491C6.11798 239.341 4.75979 237.762 3.85432 235.756C2.94886 233.724 2.49613 231.375 2.49613 228.708C2.49613 226.04 2.94886 223.691 3.85432 221.66C4.75979 219.629 6.11798 218.05 7.9289 216.925C9.73982 215.774 11.9912 215.199 14.6831 215.199C16.2004 215.199 17.5708 215.334 18.7944 215.603C20.018 215.848 21.2294 216.129 22.4285 216.447L22.0247 222.394L19.5653 222.247L19.5286 220.302C19.5286 220.057 19.4185 219.629 19.1982 219.017C19.0024 218.405 18.8189 217.867 18.6476 217.402L20.2994 218.943C19.3695 218.65 18.4151 218.405 17.4362 218.209C16.4818 217.989 15.5641 217.879 14.6831 217.879C13.0435 217.879 11.6976 218.368 10.6453 219.347C9.59299 220.302 8.80989 221.599 8.29598 223.238C7.80654 224.853 7.56182 226.664 7.56182 228.671C7.56182 230.678 7.80654 232.501 8.29598 234.141C8.80989 235.78 9.58075 237.089 10.6086 238.068C11.6609 239.023 13.0068 239.5 14.6464 239.5C15.5764 239.5 16.543 239.402 17.5464 239.206C18.5497 239.01 19.5898 238.753 20.6665 238.435L18.9045 240.05C19.0514 239.708 19.1982 239.316 19.345 238.876C19.5163 238.435 19.6632 238.032 19.7855 237.664C19.9079 237.297 19.9691 237.028 19.9691 236.857L20.0792 235.132L22.5019 235.058L22.7589 240.931C21.5842 241.225 20.3117 241.507 18.9413 241.776C17.5953 242.045 16.1759 242.18 14.6831 242.18ZM35.7692 242.106C33.8604 242.106 32.2453 241.727 30.9238 240.968C29.6268 240.185 28.6357 239.084 27.9505 237.664C27.2897 236.221 26.9593 234.52 26.9593 232.562C26.9593 230.604 27.2897 228.916 27.9505 227.496C28.6357 226.077 29.6268 224.988 30.9238 224.229C32.2453 223.446 33.8604 223.055 35.7692 223.055C38.6324 223.055 40.8104 223.899 42.3032 225.588C43.796 227.276 44.5424 229.601 44.5424 232.562C44.5424 234.52 44.212 236.221 43.5513 237.664C42.8905 239.084 41.8994 240.185 40.578 240.968C39.2809 241.727 37.678 242.106 35.7692 242.106ZM35.7692 239.426C36.7481 239.426 37.5312 239.145 38.1185 238.582C38.7059 238.019 39.1219 237.224 39.3666 236.196C39.6358 235.168 39.7704 233.957 39.7704 232.562C39.7704 231.167 39.6358 229.968 39.3666 228.965C39.1219 227.937 38.7059 227.142 38.1185 226.579C37.5312 226.016 36.7481 225.734 35.7692 225.734C34.7903 225.734 34.0072 226.016 33.4199 226.579C32.8326 227.142 32.4043 227.937 32.1351 228.965C31.8904 229.968 31.7681 231.167 31.7681 232.562C31.7681 233.957 31.8904 235.168 32.1351 236.196C32.4043 237.224 32.8326 238.019 33.4199 238.582C34.0072 239.145 34.7903 239.426 35.7692 239.426ZM47.896 241.812L47.7125 239.537L52.1908 238.692L50.0251 240.564C50.0985 240.271 50.1719 239.83 50.2453 239.243C50.3432 238.656 50.4289 238.056 50.5023 237.444C50.5757 236.832 50.6124 236.367 50.6124 236.049V229.295C50.6124 228.928 50.5757 228.426 50.5023 227.79C50.4289 227.154 50.331 226.53 50.2086 225.918C50.1107 225.282 50.0373 224.829 49.9884 224.56L52.1541 226.689L47.4922 225.955L47.7859 223.495H53.2921L54.0262 224.193L54.8338 230.396L53.549 228.047C54.014 227.068 54.5646 226.212 55.2009 225.477C55.8371 224.719 56.5713 224.131 57.4033 223.715C58.2354 223.275 59.1776 223.055 60.2298 223.055C61.7226 223.055 62.9095 223.336 63.7905 223.899C64.696 224.462 65.3445 225.282 65.736 226.358C66.152 227.435 66.3601 228.744 66.3601 230.286V234.948C66.3601 236.049 66.4212 237.102 66.5436 238.105C66.6904 239.084 66.8006 239.818 66.874 240.307L64.7816 238.876L69.26 239.28L69.0397 241.629H63.974C63.7783 241.629 63.4357 241.641 62.9462 241.666C62.4568 241.69 61.9306 241.715 61.3678 241.739C60.8049 241.764 60.291 241.788 59.8261 241.812L59.6425 239.537L63.7171 238.619L61.6982 240.307C61.7471 239.94 61.7961 239.475 61.845 238.913C61.9184 238.325 61.9796 237.762 62.0285 237.224C62.0775 236.686 62.1019 236.294 62.1019 236.049V230.58C62.1019 229.797 62.0041 229.063 61.8083 228.377C61.637 227.692 61.3188 227.154 60.8539 226.762C60.3889 226.346 59.7526 226.138 58.9451 226.138C57.8438 226.138 56.8894 226.652 56.0819 227.68C55.2988 228.683 54.9072 230.041 54.9072 231.754V234.948C54.9072 236.074 54.9562 237.151 55.054 238.178C55.1764 239.182 55.2865 239.953 55.3844 240.491L53.2921 238.876L57.7704 239.28L57.5502 241.629H52.1541C51.9828 241.629 51.6402 241.641 51.1263 241.666C50.6369 241.69 50.0862 241.715 49.4744 241.739C48.8871 241.764 48.361 241.788 47.896 241.812ZM71.6236 241.812L71.4401 239.537L75.6615 238.692L73.5324 240.564C73.5814 240.271 73.6548 239.83 73.7527 239.243C73.8506 238.656 73.9362 238.056 74.0096 237.444C74.0831 236.832 74.1198 236.367 74.1198 236.049V225.074L74.6704 225.955H71.7337L71.6236 223.899L74.6704 223.385L74.1198 224.376V220.081C74.1198 218.76 74.3767 217.597 74.8906 216.594C75.429 215.566 76.1876 214.771 77.1665 214.208C78.1454 213.645 79.32 213.364 80.6905 213.364C81.2533 213.364 81.7672 213.401 82.2322 213.474C82.7216 213.547 83.26 213.633 83.8473 213.731L83.26 219.457L80.9841 219.347L81.0575 217.842C81.0575 217.573 81.0208 217.169 80.9474 216.631C80.874 216.068 80.7884 215.603 80.6905 215.236L82.1955 216.264C82.1221 216.264 81.9508 216.239 81.6816 216.19C81.4369 216.117 81.1677 216.056 80.874 216.007C80.6048 215.958 80.3968 215.933 80.25 215.933C79.5892 215.933 79.0876 216.129 78.7449 216.521C78.4023 216.912 78.1821 217.475 78.0842 218.209C78.0108 218.943 78.0108 219.812 78.0842 220.816C78.1576 221.794 78.2677 222.883 78.4146 224.083L77.864 223.495H82.8929L82.636 225.955H77.864L78.4146 224.743V234.948C78.4146 236.074 78.4635 237.151 78.5614 238.178C78.6838 239.182 78.7817 239.953 78.8551 240.491L76.7627 238.876L82.0119 239.28L81.8284 241.629H75.6615C75.4902 241.629 75.1598 241.641 74.6704 241.666C74.2054 241.69 73.6915 241.715 73.1286 241.739C72.5903 241.764 72.0886 241.788 71.6236 241.812ZM94.3432 242.106C92.5078 242.106 90.9294 241.727 89.6079 240.968C88.3109 240.185 87.3075 239.084 86.5978 237.664C85.9126 236.245 85.57 234.569 85.57 232.635C85.57 230.629 85.9126 228.916 86.5978 227.496C87.2831 226.077 88.2619 224.988 89.5345 224.229C90.807 223.446 92.3243 223.055 94.0862 223.055C95.8238 223.055 97.2431 223.41 98.3444 224.119C99.4701 224.829 100.29 225.857 100.804 227.203C101.342 228.524 101.575 230.103 101.501 231.938L100.804 233.26H89.9016L89.9383 230.947L98.6013 230.396L96.4723 232.415C96.5457 231.999 96.6069 231.583 96.6558 231.167C96.7047 230.751 96.7292 230.335 96.7292 229.919C96.7292 228.549 96.4845 227.472 95.9951 226.689C95.5301 225.906 94.7959 225.514 93.7926 225.514C93.1074 225.514 92.5445 225.698 92.104 226.065C91.6635 226.432 91.3209 226.946 91.0762 227.607C90.856 228.243 90.6969 228.965 90.599 229.772C90.5011 230.58 90.4522 231.436 90.4522 232.342C90.4522 233.394 90.5378 234.336 90.7091 235.168C90.9049 235.976 91.1986 236.673 91.5901 237.261C91.9817 237.848 92.4711 238.301 93.0584 238.619C93.6458 238.913 94.3677 239.059 95.2242 239.059C96.252 239.059 97.2064 238.913 98.0874 238.619C98.9684 238.301 99.6414 238.007 100.106 237.738L101.244 239.683C100.975 239.928 100.62 240.197 100.18 240.491C99.7393 240.76 99.2253 241.017 98.638 241.262C98.0752 241.507 97.4267 241.702 96.6925 241.849C95.9828 242.02 95.1997 242.106 94.3432 242.106ZM111.943 241.996C109.716 241.996 107.967 241.176 106.694 239.537C105.446 237.897 104.822 235.609 104.822 232.672C104.822 229.638 105.58 227.276 107.098 225.588C108.615 223.899 110.72 223.055 113.412 223.055C113.876 223.055 114.329 223.079 114.77 223.128C115.21 223.153 115.663 223.214 116.128 223.312C116.617 223.385 117.156 223.507 117.743 223.679L117.706 227.166C116.972 226.726 116.287 226.42 115.651 226.248C115.014 226.077 114.415 225.991 113.852 225.991C112.433 225.991 111.368 226.53 110.658 227.607C109.973 228.659 109.631 230.262 109.631 232.415C109.631 234.422 109.936 235.951 110.548 237.004C111.185 238.056 112.09 238.582 113.265 238.582C114.439 238.582 115.345 238.142 115.981 237.261C116.642 236.38 117.009 235.119 117.082 233.48V219.641C117.082 219.298 117.046 218.846 116.972 218.283C116.899 217.695 116.813 217.133 116.715 216.594C116.617 216.056 116.544 215.689 116.495 215.493L118.551 217.035L113.742 216.007L114.036 213.731L118.11 213.878H120.937L121.634 214.575C121.61 215.187 121.573 215.897 121.524 216.704C121.475 217.487 121.426 218.246 121.377 218.98C121.353 219.714 121.34 220.302 121.34 220.742V234.948C121.34 236.098 121.402 237.151 121.524 238.105C121.671 239.035 121.793 239.781 121.891 240.344L119.762 238.839L124.02 239.28L123.8 241.629H117.816L117.229 236.894L118.11 237.481C117.841 238.191 117.486 238.827 117.046 239.39C116.63 239.928 116.152 240.393 115.614 240.785C115.076 241.176 114.501 241.47 113.889 241.666C113.277 241.886 112.628 241.996 111.943 241.996ZM135.245 242.106C133.41 242.106 131.831 241.727 130.51 240.968C129.213 240.185 128.21 239.084 127.5 237.664C126.815 236.245 126.472 234.569 126.472 232.635C126.472 230.629 126.815 228.916 127.5 227.496C128.185 226.077 129.164 224.988 130.436 224.229C131.709 223.446 133.226 223.055 134.988 223.055C136.726 223.055 138.145 223.41 139.246 224.119C140.372 224.829 141.192 225.857 141.706 227.203C142.244 228.524 142.477 230.103 142.403 231.938L141.706 233.26H130.804L130.84 230.947L139.503 230.396L137.374 232.415C137.448 231.999 137.509 231.583 137.558 231.167C137.607 230.751 137.631 230.335 137.631 229.919C137.631 228.549 137.387 227.472 136.897 226.689C136.432 225.906 135.698 225.514 134.695 225.514C134.009 225.514 133.447 225.698 133.006 226.065C132.566 226.432 132.223 226.946 131.978 227.607C131.758 228.243 131.599 228.965 131.501 229.772C131.403 230.58 131.354 231.436 131.354 232.342C131.354 233.394 131.44 234.336 131.611 235.168C131.807 235.976 132.101 236.673 132.492 237.261C132.884 237.848 133.373 238.301 133.96 238.619C134.548 238.913 135.27 239.059 136.126 239.059C137.154 239.059 138.108 238.913 138.989 238.619C139.87 238.301 140.543 238.007 141.008 237.738L142.146 239.683C141.877 239.928 141.522 240.197 141.082 240.491C140.641 240.76 140.127 241.017 139.54 241.262C138.977 241.507 138.329 241.702 137.595 241.849C136.885 242.02 136.102 242.106 135.245 242.106ZM145.724 241.812L145.54 239.537L150.019 238.692L147.853 240.564C147.926 240.271 148 239.83 148.073 239.243C148.171 238.656 148.257 238.056 148.33 237.444C148.404 236.832 148.44 236.367 148.44 236.049V229.295C148.44 228.928 148.404 228.426 148.33 227.79C148.257 227.154 148.159 226.53 148.036 225.918C147.939 225.282 147.865 224.829 147.816 224.56L149.982 226.689L145.32 225.955L145.614 223.495H151.12L151.854 224.193L152.662 230.396L151.083 228.598C151.377 228.01 151.695 227.411 152.038 226.799C152.405 226.163 152.833 225.575 153.322 225.037C153.836 224.474 154.436 224.021 155.121 223.679C155.831 223.336 156.663 223.165 157.617 223.165C158.082 223.165 158.547 223.202 159.012 223.275C159.502 223.348 159.967 223.434 160.407 223.532L159.93 230.36L157.434 230.249V228.304C157.434 228.206 157.397 227.986 157.324 227.643C157.275 227.276 157.201 226.897 157.103 226.505C157.03 226.089 156.956 225.783 156.883 225.588L158.241 226.469C158.021 226.444 157.789 226.432 157.544 226.432C157.324 226.407 157.103 226.395 156.883 226.395C155.659 226.395 154.656 226.86 153.873 227.79C153.114 228.696 152.735 230.005 152.735 231.718V234.948C152.735 236.074 152.784 237.151 152.882 238.178C153.004 239.182 153.114 239.953 153.212 240.491L151.12 238.876L156.296 239.28L156.112 241.629H149.982C149.811 241.629 149.468 241.641 148.954 241.666C148.465 241.69 147.914 241.715 147.302 241.739C146.715 241.764 146.189 241.788 145.724 241.812ZM168.72 241.996C167.056 241.996 165.735 241.555 164.756 240.675C163.801 239.769 163.324 238.533 163.324 236.967C163.324 235.67 163.716 234.593 164.499 233.737C165.306 232.856 166.542 232.281 168.206 232.011L174.226 231.02V233.186L169.968 233.957C169.234 234.055 168.696 234.312 168.353 234.728C168.035 235.119 167.876 235.633 167.876 236.27C167.876 237.102 168.059 237.738 168.427 238.178C168.818 238.594 169.393 238.802 170.152 238.802C171.033 238.802 171.791 238.521 172.428 237.958C173.088 237.371 173.504 236.624 173.676 235.719V229.846C173.676 228.451 173.431 227.435 172.942 226.799C172.477 226.163 171.718 225.845 170.666 225.845C170.201 225.845 169.687 225.906 169.124 226.028C168.561 226.126 168.023 226.261 167.509 226.432C167.019 226.579 166.64 226.726 166.371 226.872L167.803 224.67L167.215 228.047L167.252 229.589L164.719 229.699L164.242 223.972C164.976 223.777 165.735 223.618 166.518 223.495C167.325 223.348 168.108 223.238 168.867 223.165C169.626 223.091 170.311 223.055 170.923 223.055C173.248 223.055 174.997 223.642 176.172 224.817C177.371 225.967 177.971 227.729 177.971 230.103V234.948C177.971 236.123 178.032 237.175 178.154 238.105C178.301 239.035 178.423 239.769 178.521 240.307L176.466 238.839L180.65 239.28L180.43 241.629H174.447L173.823 236.967L174.74 237.297C174.471 238.227 174.055 239.059 173.492 239.794C172.954 240.503 172.269 241.054 171.437 241.445C170.629 241.812 169.724 241.996 168.72 241.996ZM189.866 242.18C188.104 242.18 186.868 241.69 186.159 240.711C185.449 239.708 185.094 238.325 185.094 236.563V224.046L186.966 225.955H182.341L182.231 223.936C182.647 223.789 183.124 223.618 183.663 223.422C184.225 223.202 184.776 222.981 185.314 222.761C185.877 222.516 186.33 222.296 186.673 222.1L185.094 223.605C185.266 223.385 185.461 223.079 185.682 222.688C185.926 222.296 186.171 221.892 186.416 221.476C186.66 221.036 186.881 220.62 187.076 220.228C187.297 219.837 187.456 219.543 187.554 219.347L189.389 219.494V236.673C189.389 237.383 189.536 237.97 189.83 238.435C190.148 238.876 190.662 239.096 191.371 239.096C191.836 239.096 192.289 239.01 192.729 238.839C193.194 238.643 193.635 238.399 194.051 238.105L195.226 240.05C194.369 240.662 193.476 241.176 192.546 241.592C191.64 241.984 190.747 242.18 189.866 242.18ZM188.692 225.955V223.495H194.308L194.014 225.955H188.692ZM197.882 241.812L197.698 239.537L202.177 238.692L200.011 240.564C200.084 240.271 200.158 239.83 200.231 239.243C200.329 238.656 200.415 238.056 200.488 237.444C200.562 236.832 200.598 236.367 200.598 236.049V229.295C200.598 228.928 200.562 228.451 200.488 227.863C200.415 227.252 200.329 226.628 200.231 225.991C200.133 225.331 200.048 224.768 199.974 224.303L202.14 226.689L197.478 225.955L197.772 223.495H204.453L205.224 224.193C205.175 224.633 205.126 225.233 205.077 225.991C205.028 226.75 204.979 227.521 204.93 228.304C204.905 229.087 204.893 229.785 204.893 230.396V234.948C204.893 236.074 204.942 237.151 205.04 238.178C205.162 239.182 205.273 239.953 205.37 240.491L203.278 238.876L207.756 239.28L207.536 241.629H202.14C201.969 241.629 201.626 241.641 201.112 241.666C200.623 241.69 200.072 241.715 199.46 241.739C198.873 241.764 198.347 241.788 197.882 241.812ZM201.92 220.302C201.186 220.302 200.611 220.057 200.195 219.567C199.803 219.054 199.607 218.442 199.607 217.732C199.607 216.973 199.803 216.349 200.195 215.86C200.611 215.371 201.186 215.126 201.92 215.126C202.679 215.126 203.254 215.358 203.645 215.823C204.061 216.264 204.269 216.9 204.269 217.732C204.269 218.466 204.061 219.078 203.645 219.567C203.254 220.057 202.679 220.302 201.92 220.302ZM218.986 242.106C217.077 242.106 215.462 241.727 214.14 240.968C212.843 240.185 211.852 239.084 211.167 237.664C210.506 236.221 210.176 234.52 210.176 232.562C210.176 230.604 210.506 228.916 211.167 227.496C211.852 226.077 212.843 224.988 214.14 224.229C215.462 223.446 217.077 223.055 218.986 223.055C221.849 223.055 224.027 223.899 225.52 225.588C227.013 227.276 227.759 229.601 227.759 232.562C227.759 234.52 227.429 236.221 226.768 237.664C226.107 239.084 225.116 240.185 223.795 240.968C222.498 241.727 220.895 242.106 218.986 242.106ZM218.986 239.426C219.965 239.426 220.748 239.145 221.335 238.582C221.923 238.019 222.339 237.224 222.583 236.196C222.852 235.168 222.987 233.957 222.987 232.562C222.987 231.167 222.852 229.968 222.583 228.965C222.339 227.937 221.923 227.142 221.335 226.579C220.748 226.016 219.965 225.734 218.986 225.734C218.007 225.734 217.224 226.016 216.637 226.579C216.049 227.142 215.621 227.937 215.352 228.965C215.107 229.968 214.985 231.167 214.985 232.562C214.985 233.957 215.107 235.168 215.352 236.196C215.621 237.224 216.049 238.019 216.637 238.582C217.224 239.145 218.007 239.426 218.986 239.426ZM231.113 241.812L230.929 239.537L235.407 238.692L233.242 240.564C233.315 240.271 233.389 239.83 233.462 239.243C233.56 238.656 233.646 238.056 233.719 237.444C233.792 236.832 233.829 236.367 233.829 236.049V229.295C233.829 228.928 233.792 228.426 233.719 227.79C233.646 227.154 233.548 226.53 233.425 225.918C233.327 225.282 233.254 224.829 233.205 224.56L235.371 226.689L230.709 225.955L231.003 223.495H236.509L237.243 224.193L238.05 230.396L236.766 228.047C237.231 227.068 237.781 226.212 238.418 225.477C239.054 224.719 239.788 224.131 240.62 223.715C241.452 223.275 242.394 223.055 243.447 223.055C244.939 223.055 246.126 223.336 247.007 223.899C247.913 224.462 248.561 225.282 248.953 226.358C249.369 227.435 249.577 228.744 249.577 230.286V234.948C249.577 236.049 249.638 237.102 249.76 238.105C249.907 239.084 250.017 239.818 250.091 240.307L247.998 238.876L252.477 239.28L252.256 241.629H247.191C246.995 241.629 246.652 241.641 246.163 241.666C245.673 241.69 245.147 241.715 244.584 241.739C244.022 241.764 243.508 241.788 243.043 241.812L242.859 239.537L246.934 238.619L244.915 240.307C244.964 239.94 245.013 239.475 245.062 238.913C245.135 238.325 245.196 237.762 245.245 237.224C245.294 236.686 245.319 236.294 245.319 236.049V230.58C245.319 229.797 245.221 229.063 245.025 228.377C244.854 227.692 244.536 227.154 244.071 226.762C243.606 226.346 242.969 226.138 242.162 226.138C241.06 226.138 240.106 226.652 239.299 227.68C238.515 228.683 238.124 230.041 238.124 231.754V234.948C238.124 236.074 238.173 237.151 238.271 238.178C238.393 239.182 238.503 239.953 238.601 240.491L236.509 238.876L240.987 239.28L240.767 241.629H235.371C235.199 241.629 234.857 241.641 234.343 241.666C233.854 241.69 233.303 241.715 232.691 241.739C232.104 241.764 231.578 241.788 231.113 241.812ZM271.036 242.106C269.128 242.106 267.513 241.727 266.191 240.968C264.894 240.185 263.903 239.084 263.218 237.664C262.557 236.221 262.227 234.52 262.227 232.562C262.227 230.604 262.557 228.916 263.218 227.496C263.903 226.077 264.894 224.988 266.191 224.229C267.513 223.446 269.128 223.055 271.036 223.055C273.9 223.055 276.078 223.899 277.57 225.588C279.063 227.276 279.81 229.601 279.81 232.562C279.81 234.52 279.479 236.221 278.819 237.664C278.158 239.084 277.167 240.185 275.845 240.968C274.548 241.727 272.945 242.106 271.036 242.106ZM271.036 239.426C272.015 239.426 272.798 239.145 273.386 238.582C273.973 238.019 274.389 237.224 274.634 236.196C274.903 235.168 275.038 233.957 275.038 232.562C275.038 231.167 274.903 229.968 274.634 228.965C274.389 227.937 273.973 227.142 273.386 226.579C272.798 226.016 272.015 225.734 271.036 225.734C270.058 225.734 269.275 226.016 268.687 226.579C268.1 227.142 267.672 227.937 267.402 228.965C267.158 229.968 267.035 231.167 267.035 232.562C267.035 233.957 267.158 235.168 267.402 236.196C267.672 237.224 268.1 238.019 268.687 238.582C269.275 239.145 270.058 239.426 271.036 239.426ZM283.016 241.812L282.833 239.537L287.054 238.692L284.925 240.564C284.974 240.271 285.048 239.83 285.145 239.243C285.243 238.656 285.329 238.056 285.402 237.444C285.476 236.832 285.513 236.367 285.513 236.049V225.074L286.063 225.955H283.127L283.016 223.899L286.063 223.385L285.513 224.376V220.081C285.513 218.76 285.77 217.597 286.283 216.594C286.822 215.566 287.58 214.771 288.559 214.208C289.538 213.645 290.713 213.364 292.083 213.364C292.646 213.364 293.16 213.401 293.625 213.474C294.114 213.547 294.653 213.633 295.24 213.731L294.653 219.457L292.377 219.347L292.45 217.842C292.45 217.573 292.414 217.169 292.34 216.631C292.267 216.068 292.181 215.603 292.083 215.236L293.588 216.264C293.515 216.264 293.344 216.239 293.074 216.19C292.83 216.117 292.56 216.056 292.267 216.007C291.998 215.958 291.79 215.933 291.643 215.933C290.982 215.933 290.48 216.129 290.138 216.521C289.795 216.912 289.575 217.475 289.477 218.209C289.404 218.943 289.404 219.812 289.477 220.816C289.55 221.794 289.661 222.883 289.807 224.083L289.257 223.495H294.286L294.029 225.955H289.257L289.807 224.743V234.948C289.807 236.074 289.856 237.151 289.954 238.178C290.077 239.182 290.174 239.953 290.248 240.491L288.156 238.876L293.405 239.28L293.221 241.629H287.054C286.883 241.629 286.553 241.641 286.063 241.666C285.598 241.69 285.084 241.715 284.521 241.739C283.983 241.764 283.481 241.788 283.016 241.812ZM304.863 241.812L304.68 239.647L309.121 238.802L307.102 240.675C307.176 240.332 307.249 239.879 307.322 239.316C307.42 238.729 307.506 238.142 307.579 237.554C307.653 236.943 307.69 236.478 307.69 236.159V221.183C307.69 220.864 307.653 220.448 307.579 219.935C307.53 219.421 307.457 218.895 307.359 218.356C307.286 217.793 307.2 217.341 307.102 216.998L309.121 218.613L304.716 217.879L304.9 215.566C305.34 215.591 305.842 215.615 306.405 215.64C306.968 215.664 307.506 215.689 308.02 215.713C308.534 215.738 308.938 215.75 309.231 215.75C310.161 215.75 311.091 215.738 312.021 215.713C312.975 215.664 313.93 215.615 314.884 215.566L315.031 218.062L310.626 218.503L312.572 216.961C312.523 217.328 312.449 217.818 312.351 218.43C312.278 219.041 312.205 219.69 312.131 220.375C312.082 221.036 312.058 221.672 312.058 222.284V235.058C312.058 235.719 312.082 236.429 312.131 237.187C312.205 237.921 312.278 238.607 312.351 239.243C312.449 239.855 312.523 240.332 312.572 240.675L310.626 238.949L315.251 239.353L315.068 241.629H310.039C309.182 241.629 308.326 241.641 307.469 241.666C306.613 241.715 305.744 241.764 304.863 241.812ZM319.011 241.812L318.827 239.537L323.306 238.692L321.14 240.564C321.213 240.271 321.287 239.83 321.36 239.243C321.458 238.656 321.544 238.056 321.617 237.444C321.69 236.832 321.727 236.367 321.727 236.049V229.295C321.727 228.928 321.69 228.426 321.617 227.79C321.544 227.154 321.446 226.53 321.323 225.918C321.225 225.282 321.152 224.829 321.103 224.56L323.269 226.689L318.607 225.955L318.901 223.495H324.407L325.141 224.193L325.949 230.396L324.664 228.047C325.129 227.068 325.679 226.212 326.316 225.477C326.952 224.719 327.686 224.131 328.518 223.715C329.35 223.275 330.292 223.055 331.345 223.055C332.837 223.055 334.024 223.336 334.905 223.899C335.811 224.462 336.459 225.282 336.851 226.358C337.267 227.435 337.475 228.744 337.475 230.286V234.948C337.475 236.049 337.536 237.102 337.658 238.105C337.805 239.084 337.915 239.818 337.989 240.307L335.896 238.876L340.375 239.28L340.154 241.629H335.089C334.893 241.629 334.55 241.641 334.061 241.666C333.572 241.69 333.045 241.715 332.483 241.739C331.92 241.764 331.406 241.788 330.941 241.812L330.757 239.537L334.832 238.619L332.813 240.307C332.862 239.94 332.911 239.475 332.96 238.913C333.033 238.325 333.094 237.762 333.143 237.224C333.192 236.686 333.217 236.294 333.217 236.049V230.58C333.217 229.797 333.119 229.063 332.923 228.377C332.752 227.692 332.434 227.154 331.969 226.762C331.504 226.346 330.867 226.138 330.06 226.138C328.959 226.138 328.004 226.652 327.197 227.68C326.414 228.683 326.022 230.041 326.022 231.754V234.948C326.022 236.074 326.071 237.151 326.169 238.178C326.291 239.182 326.401 239.953 326.499 240.491L324.407 238.876L328.885 239.28L328.665 241.629H323.269C323.098 241.629 322.755 241.641 322.241 241.666C321.752 241.69 321.201 241.715 320.589 241.739C320.002 241.764 319.476 241.788 319.011 241.812ZM350.007 241.996C347.78 241.996 346.03 241.176 344.757 239.537C343.509 237.897 342.885 235.609 342.885 232.672C342.885 229.638 343.644 227.276 345.161 225.588C346.678 223.899 348.783 223.055 351.475 223.055C351.94 223.055 352.393 223.079 352.833 223.128C353.274 223.153 353.726 223.214 354.191 223.312C354.681 223.385 355.219 223.507 355.806 223.679L355.77 227.166C355.036 226.726 354.35 226.42 353.714 226.248C353.078 226.077 352.478 225.991 351.915 225.991C350.496 225.991 349.431 226.53 348.722 227.607C348.037 228.659 347.694 230.262 347.694 232.415C347.694 234.422 348 235.951 348.612 237.004C349.248 238.056 350.153 238.582 351.328 238.582C352.503 238.582 353.408 238.142 354.044 237.261C354.705 236.38 355.072 235.119 355.146 233.48V219.641C355.146 219.298 355.109 218.846 355.036 218.283C354.962 217.695 354.876 217.133 354.779 216.594C354.681 216.056 354.607 215.689 354.558 215.493L356.614 217.035L351.805 216.007L352.099 213.731L356.173 213.878H359L359.697 214.575C359.673 215.187 359.636 215.897 359.587 216.704C359.538 217.487 359.489 218.246 359.44 218.98C359.416 219.714 359.404 220.302 359.404 220.742V234.948C359.404 236.098 359.465 237.151 359.587 238.105C359.734 239.035 359.856 239.781 359.954 240.344L357.825 238.839L362.083 239.28L361.863 241.629H355.88L355.292 236.894L356.173 237.481C355.904 238.191 355.549 238.827 355.109 239.39C354.693 239.928 354.216 240.393 353.677 240.785C353.139 241.176 352.564 241.47 351.952 241.666C351.34 241.886 350.692 241.996 350.007 241.996ZM364.609 241.812L364.425 239.537L368.904 238.692L366.738 240.564C366.811 240.271 366.885 239.83 366.958 239.243C367.056 238.656 367.142 238.056 367.215 237.444C367.288 236.832 367.325 236.367 367.325 236.049V229.295C367.325 228.928 367.288 228.451 367.215 227.863C367.142 227.252 367.056 226.628 366.958 225.991C366.86 225.331 366.775 224.768 366.701 224.303L368.867 226.689L364.205 225.955L364.499 223.495H371.18L371.95 224.193C371.901 224.633 371.853 225.233 371.804 225.991C371.755 226.75 371.706 227.521 371.657 228.304C371.632 229.087 371.62 229.785 371.62 230.396V234.948C371.62 236.074 371.669 237.151 371.767 238.178C371.889 239.182 371.999 239.953 372.097 240.491L370.005 238.876L374.483 239.28L374.263 241.629H368.867C368.696 241.629 368.353 241.641 367.839 241.666C367.35 241.69 366.799 241.715 366.187 241.739C365.6 241.764 365.074 241.788 364.609 241.812ZM368.647 220.302C367.913 220.302 367.337 220.057 366.921 219.567C366.53 219.054 366.334 218.442 366.334 217.732C366.334 216.973 366.53 216.349 366.921 215.86C367.337 215.371 367.913 215.126 368.647 215.126C369.405 215.126 369.98 215.358 370.372 215.823C370.788 216.264 370.996 216.9 370.996 217.732C370.996 218.466 370.788 219.078 370.372 219.567C369.98 220.057 369.405 220.302 368.647 220.302ZM382.336 241.996C380.671 241.996 379.35 241.555 378.371 240.675C377.417 239.769 376.939 238.533 376.939 236.967C376.939 235.67 377.331 234.593 378.114 233.737C378.922 232.856 380.158 232.281 381.822 232.011L387.842 231.02V233.186L383.584 233.957C382.849 234.055 382.311 234.312 381.968 234.728C381.65 235.119 381.491 235.633 381.491 236.27C381.491 237.102 381.675 237.738 382.042 238.178C382.433 238.594 383.009 238.802 383.767 238.802C384.648 238.802 385.407 238.521 386.043 237.958C386.704 237.371 387.12 236.624 387.291 235.719V229.846C387.291 228.451 387.046 227.435 386.557 226.799C386.092 226.163 385.333 225.845 384.281 225.845C383.816 225.845 383.302 225.906 382.739 226.028C382.176 226.126 381.638 226.261 381.124 226.432C380.635 226.579 380.255 226.726 379.986 226.872L381.418 224.67L380.831 228.047L380.867 229.589L378.334 229.699L377.857 223.972C378.591 223.777 379.35 223.618 380.133 223.495C380.941 223.348 381.724 223.238 382.482 223.165C383.241 223.091 383.926 223.055 384.538 223.055C386.863 223.055 388.613 223.642 389.787 224.817C390.986 225.967 391.586 227.729 391.586 230.103V234.948C391.586 236.123 391.647 237.175 391.769 238.105C391.916 239.035 392.039 239.769 392.137 240.307L390.081 238.839L394.266 239.28L394.045 241.629H388.062L387.438 236.967L388.356 237.297C388.086 238.227 387.67 239.059 387.108 239.794C386.569 240.503 385.884 241.054 385.052 241.445C384.244 241.812 383.339 241.996 382.336 241.996ZM396.764 241.812L396.58 239.537L401.059 238.692L398.893 240.564C398.967 240.271 399.04 239.83 399.113 239.243C399.211 238.656 399.297 238.056 399.37 237.444C399.444 236.832 399.48 236.367 399.48 236.049V229.295C399.48 228.928 399.444 228.426 399.37 227.79C399.297 227.154 399.199 226.53 399.077 225.918C398.979 225.282 398.905 224.829 398.856 224.56L401.022 226.689L396.36 225.955L396.654 223.495H402.16L402.894 224.193L403.702 230.396L402.417 228.047C402.882 227.068 403.433 226.212 404.069 225.477C404.705 224.719 405.439 224.131 406.271 223.715C407.103 223.275 408.046 223.055 409.098 223.055C410.591 223.055 411.778 223.336 412.659 223.899C413.564 224.462 414.212 225.282 414.604 226.358C415.02 227.435 415.228 228.744 415.228 230.286V234.948C415.228 236.049 415.289 237.102 415.412 238.105C415.558 239.084 415.669 239.818 415.742 240.307L413.65 238.876L418.128 239.28L417.908 241.629H412.842C412.646 241.629 412.304 241.641 411.814 241.666C411.325 241.69 410.799 241.715 410.236 241.739C409.673 241.764 409.159 241.788 408.694 241.812L408.511 239.537L412.585 238.619L410.566 240.307C410.615 239.94 410.664 239.475 410.713 238.913C410.786 238.325 410.848 237.762 410.897 237.224C410.946 236.686 410.97 236.294 410.97 236.049V230.58C410.97 229.797 410.872 229.063 410.676 228.377C410.505 227.692 410.187 227.154 409.722 226.762C409.257 226.346 408.621 226.138 407.813 226.138C406.712 226.138 405.757 226.652 404.95 227.68C404.167 228.683 403.775 230.041 403.775 231.754V234.948C403.775 236.074 403.824 237.151 403.922 238.178C404.044 239.182 404.155 239.953 404.252 240.491L402.16 238.876L406.638 239.28L406.418 241.629H401.022C400.851 241.629 400.508 241.641 399.994 241.666C399.505 241.69 398.954 241.715 398.342 241.739C397.755 241.764 397.229 241.788 396.764 241.812ZM428.465 241.812L428.282 239.647L432.723 238.802L430.704 240.675C430.778 240.332 430.851 239.879 430.925 239.316C431.023 238.729 431.108 238.142 431.182 237.554C431.255 236.943 431.292 236.478 431.292 236.159V221.183C431.292 220.864 431.255 220.448 431.182 219.935C431.133 219.421 431.059 218.895 430.961 218.356C430.888 217.793 430.802 217.341 430.704 216.998L432.723 218.613L428.318 217.879L428.502 215.566C428.942 215.591 429.444 215.615 430.007 215.64C430.57 215.664 431.108 215.689 431.622 215.713C432.136 215.738 432.54 215.75 432.834 215.75C433.763 215.75 434.693 215.738 435.623 215.713C436.578 215.664 437.532 215.615 438.487 215.566L438.633 218.062L434.228 218.503L436.174 216.961C436.125 217.328 436.052 217.818 435.954 218.43C435.88 219.041 435.807 219.69 435.733 220.375C435.685 221.036 435.66 221.672 435.66 222.284V235.058C435.66 235.719 435.685 236.429 435.733 237.187C435.807 237.921 435.88 238.607 435.954 239.243C436.052 239.855 436.125 240.332 436.174 240.675L434.228 238.949L438.854 239.353L438.67 241.629H433.641C432.785 241.629 431.928 241.641 431.072 241.666C430.215 241.715 429.346 241.764 428.465 241.812ZM442.613 241.812L442.429 239.537L446.908 238.692L444.742 240.564C444.815 240.271 444.889 239.83 444.962 239.243C445.06 238.656 445.146 238.056 445.219 237.444C445.293 236.832 445.329 236.367 445.329 236.049V229.295C445.329 228.928 445.293 228.426 445.219 227.79C445.146 227.154 445.048 226.53 444.926 225.918C444.828 225.282 444.754 224.829 444.705 224.56L446.871 226.689L442.209 225.955L442.503 223.495H448.009L448.743 224.193L449.551 230.396L448.266 228.047C448.731 227.068 449.282 226.212 449.918 225.477C450.554 224.719 451.288 224.131 452.12 223.715C452.952 223.275 453.895 223.055 454.947 223.055C456.44 223.055 457.627 223.336 458.508 223.899C459.413 224.462 460.061 225.282 460.453 226.358C460.869 227.435 461.077 228.744 461.077 230.286V234.948C461.077 236.049 461.138 237.102 461.261 238.105C461.407 239.084 461.518 239.818 461.591 240.307L459.499 238.876L463.977 239.28L463.757 241.629H458.691C458.495 241.629 458.153 241.641 457.663 241.666C457.174 241.69 456.648 241.715 456.085 241.739C455.522 241.764 455.008 241.788 454.543 241.812L454.36 239.537L458.434 238.619L456.415 240.307C456.464 239.94 456.513 239.475 456.562 238.913C456.635 238.325 456.697 237.762 456.746 237.224C456.794 236.686 456.819 236.294 456.819 236.049V230.58C456.819 229.797 456.721 229.063 456.525 228.377C456.354 227.692 456.036 227.154 455.571 226.762C455.106 226.346 454.47 226.138 453.662 226.138C452.561 226.138 451.606 226.652 450.799 227.68C450.016 228.683 449.624 230.041 449.624 231.754V234.948C449.624 236.074 449.673 237.151 449.771 238.178C449.893 239.182 450.004 239.953 450.101 240.491L448.009 238.876L452.487 239.28L452.267 241.629H446.871C446.7 241.629 446.357 241.641 445.843 241.666C445.354 241.69 444.803 241.715 444.191 241.739C443.604 241.764 443.078 241.788 442.613 241.812ZM473.609 241.996C471.382 241.996 469.632 241.176 468.36 239.537C467.111 237.897 466.487 235.609 466.487 232.672C466.487 229.638 467.246 227.276 468.763 225.588C470.281 223.899 472.385 223.055 475.077 223.055C475.542 223.055 475.995 223.079 476.435 223.128C476.876 223.153 477.329 223.214 477.793 223.312C478.283 223.385 478.821 223.507 479.409 223.679L479.372 227.166C478.638 226.726 477.953 226.42 477.316 226.248C476.68 226.077 476.08 225.991 475.518 225.991C474.098 225.991 473.034 226.53 472.324 227.607C471.639 228.659 471.296 230.262 471.296 232.415C471.296 234.422 471.602 235.951 472.214 237.004C472.85 238.056 473.756 238.582 474.93 238.582C476.105 238.582 477.01 238.142 477.647 237.261C478.307 236.38 478.674 235.119 478.748 233.48V219.641C478.748 219.298 478.711 218.846 478.638 218.283C478.564 217.695 478.479 217.133 478.381 216.594C478.283 216.056 478.209 215.689 478.161 215.493L480.216 217.035L475.407 216.007L475.701 213.731L479.776 213.878H482.602L483.3 214.575C483.275 215.187 483.238 215.897 483.19 216.704C483.141 217.487 483.092 218.246 483.043 218.98C483.018 219.714 483.006 220.302 483.006 220.742V234.948C483.006 236.098 483.067 237.151 483.19 238.105C483.336 239.035 483.459 239.781 483.557 240.344L481.428 238.839L485.686 239.28L485.465 241.629H479.482L478.895 236.894L479.776 237.481C479.507 238.191 479.152 238.827 478.711 239.39C478.295 239.928 477.818 240.393 477.28 240.785C476.741 241.176 476.166 241.47 475.554 241.666C474.942 241.886 474.294 241.996 473.609 241.996ZM496.177 241.886C494.659 241.886 493.436 241.592 492.506 241.005C491.6 240.418 490.94 239.586 490.524 238.509C490.132 237.432 489.936 236.135 489.936 234.618V229.295C489.936 229.001 489.9 228.598 489.826 228.084C489.753 227.57 489.667 227.007 489.569 226.395C489.496 225.783 489.422 225.22 489.349 224.707L491.405 226.689L487.367 225.955L487.624 223.495H493.791L494.525 224.193C494.476 224.804 494.427 225.514 494.378 226.322C494.329 227.105 494.28 227.863 494.231 228.598C494.207 229.332 494.194 229.931 494.194 230.396V234.801C494.194 235.927 494.427 236.869 494.892 237.628C495.357 238.362 496.152 238.729 497.278 238.729C498.037 238.729 498.709 238.509 499.297 238.068C499.909 237.603 500.386 236.967 500.728 236.159C501.071 235.352 501.242 234.422 501.242 233.37V229.295C501.242 229.026 501.218 228.634 501.169 228.12C501.12 227.607 501.047 227.056 500.949 226.469C500.875 225.857 500.802 225.306 500.728 224.817L502.784 226.689L498.196 225.955L498.453 223.495H505.097L505.868 224.193C505.819 224.804 505.77 225.514 505.721 226.322C505.672 227.105 505.623 227.863 505.574 228.598C505.549 229.332 505.537 229.931 505.537 230.396V234.948C505.537 235.951 505.598 236.955 505.721 237.958C505.843 238.937 505.941 239.94 506.014 240.968L503.959 238.839L508.217 239.28L507.997 241.629H502.05L501.426 236.857L502.307 237.738C501.94 238.399 501.487 239.047 500.949 239.683C500.41 240.32 499.762 240.846 499.003 241.262C498.245 241.678 497.302 241.886 496.177 241.886ZM517.402 241.996C516.228 241.996 515.102 241.874 514.025 241.629C512.973 241.36 512.031 241.115 511.199 240.895L511.492 235.315L513.915 235.389V236.967C513.915 237.114 513.952 237.359 514.025 237.701C514.123 238.019 514.246 238.374 514.392 238.766C514.539 239.133 514.674 239.463 514.796 239.757L513.438 238.068C513.927 238.46 514.539 238.802 515.273 239.096C516.007 239.365 516.754 239.5 517.513 239.5C518.271 239.5 518.895 239.329 519.385 238.986C519.899 238.643 520.155 238.129 520.155 237.444C520.155 236.735 519.825 236.184 519.164 235.792C518.528 235.401 517.757 234.997 516.852 234.581C516.24 234.287 515.604 233.981 514.943 233.663C514.307 233.321 513.707 232.929 513.144 232.489C512.581 232.024 512.116 231.473 511.749 230.837C511.407 230.201 511.235 229.43 511.235 228.524C511.235 226.713 511.835 225.355 513.034 224.45C514.233 223.52 515.775 223.055 517.659 223.055C518.785 223.055 519.801 223.128 520.706 223.275C521.636 223.422 522.505 223.605 523.312 223.826L523.019 229.442L520.669 229.258V227.79C520.669 227.668 520.596 227.411 520.449 227.019C520.302 226.603 520.131 226.175 519.935 225.734C519.764 225.294 519.629 224.964 519.531 224.743L521.147 226.542C520.608 226.273 520.07 226.053 519.531 225.881C519.018 225.685 518.381 225.588 517.623 225.588C516.766 225.588 516.118 225.759 515.677 226.101C515.261 226.42 515.053 226.848 515.053 227.386C515.053 228.023 515.383 228.549 516.044 228.965C516.705 229.356 517.488 229.748 518.394 230.139C519.054 230.409 519.715 230.714 520.376 231.057C521.061 231.375 521.685 231.767 522.248 232.232C522.835 232.672 523.3 233.235 523.643 233.92C524.01 234.605 524.193 235.425 524.193 236.38C524.193 238.288 523.569 239.708 522.321 240.638C521.098 241.543 519.458 241.996 517.402 241.996ZM534.361 242.18C532.599 242.18 531.363 241.69 530.653 240.711C529.944 239.708 529.589 238.325 529.589 236.563V224.046L531.461 225.955H526.836L526.726 223.936C527.142 223.789 527.619 223.618 528.157 223.422C528.72 223.202 529.271 222.981 529.809 222.761C530.372 222.516 530.825 222.296 531.167 222.1L529.589 223.605C529.76 223.385 529.956 223.079 530.176 222.688C530.421 222.296 530.666 221.892 530.91 221.476C531.155 221.036 531.375 220.62 531.571 220.228C531.791 219.837 531.95 219.543 532.048 219.347L533.884 219.494V236.673C533.884 237.383 534.031 237.97 534.324 238.435C534.642 238.876 535.156 239.096 535.866 239.096C536.331 239.096 536.784 239.01 537.224 238.839C537.689 238.643 538.13 238.399 538.546 238.105L539.72 240.05C538.864 240.662 537.97 241.176 537.041 241.592C536.135 241.984 535.242 242.18 534.361 242.18ZM533.186 225.955V223.495H538.803L538.509 225.955H533.186ZM542.377 241.812L542.193 239.537L546.671 238.692L544.506 240.564C544.579 240.271 544.652 239.83 544.726 239.243C544.824 238.656 544.909 238.056 544.983 237.444C545.056 236.832 545.093 236.367 545.093 236.049V229.295C545.093 228.928 545.056 228.426 544.983 227.79C544.909 227.154 544.812 226.53 544.689 225.918C544.591 225.282 544.518 224.829 544.469 224.56L546.635 226.689L541.973 225.955L542.266 223.495H547.773L548.507 224.193L549.314 230.396L547.736 228.598C548.03 228.01 548.348 227.411 548.69 226.799C549.057 226.163 549.486 225.575 549.975 225.037C550.489 224.474 551.089 224.021 551.774 223.679C552.484 223.336 553.316 223.165 554.27 223.165C554.735 223.165 555.2 223.202 555.665 223.275C556.154 223.348 556.619 223.434 557.06 223.532L556.583 230.36L554.086 230.249V228.304C554.086 228.206 554.05 227.986 553.976 227.643C553.927 227.276 553.854 226.897 553.756 226.505C553.683 226.089 553.609 225.783 553.536 225.588L554.894 226.469C554.674 226.444 554.441 226.432 554.197 226.432C553.976 226.407 553.756 226.395 553.536 226.395C552.312 226.395 551.309 226.86 550.526 227.79C549.767 228.696 549.388 230.005 549.388 231.718V234.948C549.388 236.074 549.437 237.151 549.535 238.178C549.657 239.182 549.767 239.953 549.865 240.491L547.773 238.876L552.948 239.28L552.765 241.629H546.635C546.463 241.629 546.121 241.641 545.607 241.666C545.117 241.69 544.567 241.715 543.955 241.739C543.368 241.764 542.842 241.788 542.377 241.812ZM567.796 250.622L564.565 249.851L564.382 249.227C564.798 248.493 565.153 247.82 565.446 247.209C565.74 246.597 566.021 245.96 566.291 245.3C566.584 244.663 566.89 243.905 567.208 243.024C567.527 242.167 567.918 241.103 568.383 239.83V243.391L562.877 229.589C562.51 228.683 562.106 227.79 561.665 226.909C561.249 226.004 560.833 225.11 560.417 224.229L563.06 226.322L559.096 225.808L559.279 223.495H568.053L568.199 225.734L564.272 226.175L565.777 224.083C565.948 224.817 566.107 225.575 566.254 226.358C566.425 227.142 566.633 227.912 566.878 228.671L570.365 238.435H569.154L572.347 228.818C572.617 228.035 572.825 227.252 572.972 226.469C573.118 225.661 573.253 224.866 573.375 224.083L574.917 226.212L570.989 225.661L571.173 223.495H579.175L579.285 225.734L575.504 226.175L578.184 224.193C577.768 225.098 577.34 226.016 576.899 226.946C576.483 227.876 576.092 228.806 575.725 229.736L567.796 250.622Z" fill="#003F19"/>
</svg>
