<svg width="300" height="187" viewBox="0 0 300 187" fill="none" xmlns="http://www.w3.org/2000/svg">
<path d="M152.515 42.7301H208.437V46.745H200.981L174.311 138.515H179.759V146.545H124.698V138.515H132.727L158.538 47.3186H152.515V42.7301Z" fill="#003F19"/>
<path d="M214.747 42.7301H270.669V46.745H263.212L236.542 138.515H241.991V146.545H186.929V138.515H194.959L220.769 47.3186H214.747V42.7301Z" fill="#003F19"/>
<path d="M141.044 42.7301L79.96 40.7227L44.9728 56.4956L29.7734 113.278L53.0026 144.25H110.932L120.97 108.403L58.1647 138.515L79.96 46.745L129.573 79.438L141.044 42.7301Z" fill="#003F19"/>
<rect x="3.67607" y="3.15458" width="293.089" height="180.671" rx="21.5085" stroke="#003F19" stroke-width="6.30916"/>
</svg>
