<svg width="259" height="256" viewBox="0 0 259 256" fill="none" xmlns="http://www.w3.org/2000/svg">
<path d="M235.374 128.251C235.374 200.514 180.519 230.118 151.573 237.405L157.19 214.936L148.982 204.613C148.982 204.613 141.543 206.738 129.853 206.738C118.164 206.738 111.788 204.613 111.788 204.613L102.082 214.936L107.396 237.405C35.3758 216.88 22.6336 156.084 25.265 128.251C32.0663 49.7945 96.6171 28.0549 128.042 26.9922C209.05 28.2067 235.374 96.0475 235.374 128.251Z" fill="white" stroke="#003F19" stroke-width="2.429" stroke-linecap="round"/>
<circle cx="130.16" cy="131.892" r="33.5506" fill="#003F19"/>
<path d="M173.578 132.046C173.578 155.938 154.142 175.313 130.159 175.313C106.177 175.313 86.7409 155.938 86.7409 132.046C86.7409 108.154 106.177 88.7795 130.159 88.7795C154.142 88.7795 173.578 108.154 173.578 132.046Z" stroke="#003F19" stroke-width="2.12538"/>
<path d="M147.921 132.044C147.921 142.127 139.948 150.262 130.159 150.262C120.37 150.262 112.397 142.127 112.397 132.044C112.397 121.962 120.37 113.827 130.159 113.827C139.948 113.827 147.921 121.962 147.921 132.044Z" stroke="#003F19" stroke-width="1.82175"/>
<path d="M130.158 99.8613L137.103 115.038L152.593 109.288L146.925 125.001L161.886 132.046L146.925 139.091L152.593 154.803L137.103 149.054L130.158 164.23L123.212 149.054L107.722 154.803L113.39 139.091L98.4287 132.046L113.39 125.001L107.722 109.288L123.212 115.038L130.158 99.8613Z" fill="white"/>
<path d="M188.454 132.045C188.454 163.919 162.425 189.886 130.158 189.886C97.8916 189.886 71.862 163.919 71.862 132.045C71.862 100.171 97.8916 74.2043 130.158 74.2043C162.425 74.2043 188.454 100.171 188.454 132.045Z" stroke="#003F19" stroke-width="22.7719"/>
<circle cx="130.159" cy="131.893" r="14.4222" fill="#003F19"/>
<circle cx="130.311" cy="132.045" r="17.9139" stroke="#003F19" stroke-width="1.2145"/>
<path d="M202.735 132.653C202.735 173.58 169.894 206.737 129.409 206.737C88.9242 206.737 56.0836 173.58 56.0836 132.653C56.0836 91.7252 88.9242 58.568 129.409 58.568C169.894 58.568 202.735 91.7252 202.735 132.653Z" stroke="#003F19" stroke-width="2.429"/>
<path d="M80.0501 194.577L79.0257 195.881L76.1082 194.042L78.2087 194.047C77.9895 194.2 77.713 194.415 77.3792 194.691C77.019 194.967 76.6656 195.251 76.3191 195.54C75.9598 195.843 75.6974 196.084 75.5319 196.261L67.7399 204.618C67.5744 204.795 67.3784 205.046 67.152 205.371C66.912 205.684 66.6792 206.015 66.4537 206.367C66.2018 206.719 66.0141 207.016 65.8905 207.258L65.6043 205.307L67.6801 208.008L66.3746 209.203C66.1415 208.96 65.8743 208.685 65.573 208.379C65.2717 208.072 64.984 207.779 64.71 207.498C64.436 207.217 64.217 207 64.0532 206.847C63.5343 206.363 63.009 205.886 62.4774 205.416C61.9194 204.947 61.3614 204.477 60.8034 204.008L62.0202 202.539L64.7072 204.585L62.8195 204.433C63.0378 204.254 63.3334 204.019 63.7063 203.728C64.0656 203.425 64.444 203.102 64.8414 202.757C65.2125 202.414 65.5572 202.072 65.8755 201.731L72.5216 194.603C72.8654 194.234 73.2209 193.825 73.5883 193.377C73.9293 192.929 74.2449 192.508 74.5349 192.115C74.7986 191.723 75.0059 191.418 75.1569 191.202L75.3448 193.177L72.9741 190.545L74.2606 189.371L77.0667 191.987C77.5446 192.433 78.0289 192.871 78.5195 193.303C79.0229 193.722 79.5331 194.146 80.0501 194.577Z" fill="#003F19"/>
<path d="M56.8221 164.976C57.0635 165.563 57.0618 166.099 56.8169 166.583C56.5719 167.068 56.1559 167.431 55.5689 167.672C54.9645 167.921 54.405 167.959 53.8902 167.787C53.3754 167.615 52.9973 167.236 52.7559 166.649C52.5073 166.044 52.4969 165.504 52.7246 165.026C52.9451 164.532 53.3749 164.153 54.0137 163.891C54.6008 163.649 55.1517 163.614 55.6665 163.786C56.1813 163.958 56.5665 164.355 56.8221 164.976Z" fill="#003F19"/>
<path d="M48.9051 135.787L47.2485 135.858L46.7474 132.445L48.1096 134.044C47.8508 133.977 47.5081 133.907 47.0814 133.833C46.6369 133.739 46.192 133.655 45.7466 133.58C45.2827 133.505 44.9294 133.462 44.687 133.452L33.2713 132.971C33.0288 132.961 32.7105 132.976 32.3164 133.015C31.9231 133.036 31.5197 133.075 31.1062 133.132C30.6749 133.17 30.327 133.221 30.0627 133.285L31.3586 131.798L30.6577 135.132L28.9009 134.918C28.9337 134.583 28.9684 134.201 29.0051 133.773C29.0418 133.344 29.0778 132.935 29.1129 132.544C29.148 132.153 29.1703 131.846 29.1797 131.622C29.2096 130.913 29.2301 130.204 29.2412 129.494C29.2346 128.765 29.2279 128.036 29.2212 127.307L31.1285 127.275L31.3229 130.647L30.2102 129.115C30.4884 129.164 30.8591 129.235 31.3223 129.33C31.7863 129.405 32.2783 129.482 32.7982 129.56C33.3003 129.618 33.7844 129.657 34.2508 129.677L43.9877 130.087C44.4913 130.108 45.033 130.112 45.6129 130.099C46.1748 130.067 46.6995 130.033 47.1868 129.997C47.6563 129.942 48.0223 129.902 48.2851 129.875L46.9076 131.303L47.3638 127.79L49.0926 128.003L48.9313 131.836C48.9038 132.489 48.8857 133.143 48.8768 133.796C48.8867 134.451 48.8961 135.114 48.9051 135.787Z" fill="#003F19"/>
<path d="M56.3146 98.7841C56.0254 99.3492 55.6171 99.696 55.0899 99.8247C54.5627 99.9533 54.0165 99.873 53.4515 99.5838C52.8698 99.2861 52.4769 98.8858 52.2729 98.3829C52.0689 97.88 52.1115 97.346 52.4007 96.781C52.6984 96.1993 53.1026 95.8399 53.6132 95.7027C54.1323 95.549 54.6993 95.6294 55.3142 95.9442C55.8793 96.2334 56.2638 96.6294 56.4679 97.1323C56.6719 97.6352 56.6208 98.1858 56.3146 98.7841Z" fill="#003F19"/>
<path d="M78.8097 69.7987C77.6899 70.6079 76.5756 71.2174 75.4666 71.6272C74.3577 72.037 73.4887 72.2849 72.8598 72.3709L70.379 68.2208L72.157 67.1432L73.1147 68.4205C73.1694 68.4962 73.296 68.6236 73.4944 68.8026C73.682 68.9665 73.9011 69.1422 74.1517 69.3296C74.3914 69.5019 74.6126 69.6645 74.8153 69.8175C75.018 69.9705 75.1563 70.0663 75.2303 70.105L73.187 69.7158C73.794 69.5996 74.4822 69.4363 75.2515 69.2259C76.0099 69.0003 76.7371 68.636 77.4332 68.133C78.2351 67.5534 78.7382 66.8789 78.9423 66.1095C79.1615 65.3291 78.9868 64.5455 78.4182 63.7586C77.9808 63.1534 77.4383 62.7852 76.7908 62.6543C76.1324 62.5082 75.4063 62.4915 74.6126 62.6045C73.8231 62.6913 72.9937 62.8185 72.1243 62.9861C71.2591 63.1276 70.4044 63.2039 69.5602 63.2151C68.7051 63.2112 67.8806 63.0584 67.0868 62.7568C66.2971 62.4291 65.5961 61.8415 64.9837 60.9941C64.3167 60.0711 63.9729 59.1332 63.9525 58.1806C63.9362 57.2018 64.1936 56.2672 64.7248 55.3766C65.245 54.4708 65.9893 53.668 66.9578 52.9682C67.7143 52.4214 68.5634 51.923 69.5051 51.4728C70.4467 51.0227 71.3799 50.6247 72.3047 50.2789L74.7754 54.3671L73.1336 55.3464L72.2743 54.2052C72.2087 54.1144 72.0636 53.9774 71.8391 53.7941C71.6036 53.5958 71.3365 53.3856 71.038 53.1637C70.7394 52.9418 70.4627 52.7502 70.2079 52.5889L72.4757 52.954C71.7644 53.0534 71.0632 53.2146 70.3721 53.4376C69.6852 53.6346 69.0391 53.9518 68.4338 54.3892C67.7378 54.8922 67.2919 55.5024 67.0962 56.2197C66.9005 56.937 67.0596 57.6512 67.5736 58.3624C67.9782 58.9223 68.5042 59.2677 69.1517 59.3987C69.7883 59.5145 70.5034 59.516 71.2971 59.4031C72.0908 59.2902 72.9203 59.163 73.7855 59.0215C74.6658 58.869 75.541 58.7893 76.4113 58.7823C77.2816 58.7753 78.1115 58.9357 78.9012 59.2634C79.6908 59.5911 80.3973 60.1862 81.0206 61.0487C81.7533 62.0625 82.1269 63.1055 82.1415 64.1776C82.1452 65.2345 81.8546 66.2507 81.2696 67.2263C80.6738 68.1867 79.8538 69.0441 78.8097 69.7987Z" fill="#003F19"/>
<path d="M112.173 53.9492C111.546 54.0486 111.025 53.9232 110.611 53.5731C110.196 53.2229 109.939 52.7344 109.84 52.1075C109.737 51.4621 109.829 50.9088 110.115 50.4476C110.401 49.9864 110.858 49.7061 111.485 49.6067C112.13 49.5044 112.659 49.6191 113.07 49.9508C113.5 50.2796 113.77 50.7851 113.878 51.4674C113.977 52.0943 113.884 52.6384 113.598 53.0996C113.312 53.5608 112.837 53.844 112.173 53.9492Z" fill="#003F19"/>
<path d="M150.138 54.319L151.694 38.205C151.725 37.8522 151.735 37.5004 151.725 37.1498C151.721 36.7821 151.708 36.3898 151.686 35.9729C151.68 35.5635 151.666 35.0793 151.644 34.5203L152.791 36.4522L150.463 34.7099L151.294 33.1471C151.595 33.298 151.921 33.46 152.273 33.6332C152.643 33.8138 152.995 33.9869 153.33 34.1526C153.665 34.3184 153.927 34.4421 154.115 34.5238C154.527 34.7021 154.976 34.8868 155.463 35.0777C155.967 35.276 156.462 35.4706 156.949 35.6616C157.436 35.8525 157.863 36.0174 158.23 36.1563L157.601 37.959L154.208 36.9144L155.736 36.4174C155.642 36.6817 155.54 37.0343 155.43 37.4751C155.337 37.9233 155.242 38.4009 155.144 38.9079C155.046 39.4149 154.964 39.9085 154.899 40.3887L153.286 51.7772L152.643 51.4986L162.891 39.0634L164.972 39.9662L163.048 56.0123L162.38 55.7226L170.311 45.8843C170.484 45.6742 170.682 45.4042 170.907 45.0743C171.131 44.7443 171.331 44.4241 171.507 44.1135C171.707 43.7932 171.835 43.5438 171.892 43.365L172.569 44.9713L169.757 43.0798L170.588 41.517C171.009 41.7199 171.451 41.9425 171.916 42.1848C172.398 42.4345 172.776 42.6188 173.05 42.7377C173.41 42.8937 173.816 43.0597 174.269 43.2358C174.721 43.4119 175.157 43.5805 175.575 43.7417C176.011 43.9103 176.387 44.0529 176.702 44.1695L176.047 45.9611L173.304 45.1069L175.5 44.8997C175.242 45.0726 174.904 45.3125 174.486 45.6196C174.085 45.9341 173.673 46.2742 173.25 46.6401C172.834 46.9888 172.477 47.3427 172.179 47.7017L162.084 59.5014L159.875 58.5429L161.427 43.4954L162.12 43.7963L152.347 55.2775L150.138 54.319Z" fill="#003F19"/>
<path d="M191.524 83.7881C191.168 83.2623 191.061 82.7375 191.202 82.2135C191.344 81.6896 191.677 81.2497 192.203 80.894C192.744 80.5278 193.284 80.3765 193.823 80.4401C194.362 80.5037 194.81 80.7984 195.165 81.3241C195.531 81.8653 195.652 82.3927 195.526 82.9062C195.41 83.4351 195.066 83.8932 194.494 84.2803C193.969 84.636 193.436 84.7821 192.897 84.7185C192.358 84.6548 191.9 84.3447 191.524 83.7881Z" fill="#003F19"/>
<path d="M205.672 110.875L207.296 110.539L208.339 113.827L206.911 112.503C207.156 112.511 207.495 112.518 207.928 112.522C208.364 112.545 208.797 112.55 209.227 112.536C209.66 112.54 209.988 112.529 210.211 112.502L221.555 111.142C221.74 111.12 221.988 111.071 222.299 110.996C222.61 110.921 222.929 110.836 223.256 110.74C223.603 110.661 223.905 110.587 224.16 110.519C224.415 110.451 224.569 110.404 224.623 110.379L223.636 111.795L223.787 108.589L225.556 108.518C225.577 108.854 225.604 109.236 225.637 109.665C225.67 110.094 225.7 110.504 225.728 110.895C225.756 111.287 225.784 111.594 225.81 111.816C225.866 112.279 225.937 112.797 226.025 113.37C226.131 113.94 226.228 114.511 226.315 115.084C226.402 115.656 226.474 116.174 226.53 116.637C226.652 117.657 226.579 118.615 226.31 119.513C226.044 120.428 225.599 121.187 224.975 121.788C224.354 122.408 223.552 122.777 222.57 122.894C221.661 123.003 220.82 122.888 220.046 122.548C219.274 122.227 218.623 121.732 218.091 121.062C217.578 120.391 217.229 119.596 217.043 118.678L218.658 119.443L215.794 119.787L217.092 118.615C217.187 119.714 217.082 120.723 216.779 121.643C216.494 122.561 216.01 123.305 215.326 123.876C214.663 124.463 213.803 124.82 212.747 124.947C211.616 125.083 210.619 124.92 209.755 124.46C208.893 124.018 208.203 123.358 207.684 122.48C207.165 121.602 206.839 120.607 206.706 119.495C206.623 118.809 206.558 118.027 206.509 117.149C206.441 116.273 206.365 115.483 206.281 114.779C206.252 114.538 206.199 114.177 206.123 113.698C206.049 113.237 205.972 112.748 205.891 112.231C205.81 111.714 205.737 111.262 205.672 110.875ZM207.53 116.491L208.393 115.456C208.386 115.871 208.384 116.322 208.386 116.811C208.407 117.297 208.45 117.809 208.514 118.347C208.641 119.403 209.058 120.218 209.766 120.792C210.495 121.381 211.443 121.606 212.611 121.466C213.501 121.359 214.191 121.079 214.682 120.625C215.192 120.169 215.529 119.612 215.694 118.952C215.86 118.293 215.896 117.574 215.802 116.796L215.766 116.49L217.763 116.448L217.787 116.642C217.911 117.681 218.318 118.487 219.008 119.063C219.716 119.636 220.626 119.856 221.738 119.722C222.702 119.607 223.447 119.235 223.974 118.608C224.502 117.999 224.708 117.204 224.59 116.221C224.537 115.777 224.481 115.313 224.423 114.831C224.365 114.349 224.312 113.904 224.263 113.496L225.016 114.365C224.884 114.362 224.593 114.369 224.144 114.385C223.695 114.401 223.189 114.415 222.626 114.426C222.084 114.454 221.581 114.495 221.118 114.551L211.442 115.711C210.997 115.765 210.498 115.843 209.947 115.947C209.414 116.048 208.919 116.155 208.462 116.266C208.024 116.375 207.713 116.45 207.53 116.491Z" fill="#003F19"/>
<path d="M203.661 155.408C203.883 154.813 204.249 154.422 204.758 154.234C205.267 154.046 205.819 154.063 206.413 154.286C207.025 154.515 207.461 154.868 207.722 155.344C207.982 155.82 208.001 156.356 207.778 156.95C207.549 157.562 207.188 157.965 206.697 158.16C206.199 158.372 205.626 158.357 204.979 158.115C204.385 157.892 203.957 157.543 203.697 157.066C203.437 156.59 203.425 156.037 203.661 155.408Z" fill="#003F19"/>
<path d="M190.29 183.322L191.425 184.531L189.145 187.155L189.568 185.071C189.64 185.253 189.739 185.484 189.866 185.764C189.992 186.045 190.131 186.34 190.281 186.65C190.416 186.971 190.554 187.267 190.696 187.536C190.837 187.805 190.966 188.012 191.081 188.159L197.638 197.576C197.785 197.793 197.988 198.049 198.246 198.345C198.515 198.656 198.781 198.946 199.042 199.216C199.314 199.5 199.534 199.718 199.703 199.871L197.91 199.861L200.937 198.181L201.921 199.651C201.632 199.857 201.32 200.08 200.986 200.32C200.638 200.571 200.304 200.812 199.985 201.04C199.666 201.269 199.426 201.447 199.265 201.574L197.046 203.329L196.282 203.22C195.849 202.943 195.381 202.623 194.879 202.259C194.362 201.906 193.888 201.578 193.458 201.275C193.025 200.999 192.729 200.805 192.569 200.693L182.946 194.666L183.648 194.11L187.362 205.169C187.407 205.347 187.511 205.658 187.672 206.103C187.832 206.547 188.013 207.046 188.214 207.601C188.415 208.156 188.608 208.671 188.792 209.144L188.7 209.931L187.448 210.921C186.95 211.315 186.42 211.758 185.858 212.251C185.28 212.755 184.778 213.188 184.35 213.55L183.059 212.143L185.508 209.778L184.97 211.31C184.649 210.873 184.283 210.366 183.872 209.786C183.447 209.218 183.052 208.733 182.686 208.332L176.03 201.135C175.876 200.971 175.65 200.746 175.352 200.458C175.05 200.197 174.736 199.921 174.411 199.631C174.086 199.34 173.779 199.072 173.489 198.825C173.21 198.593 172.991 198.422 172.831 198.31L174.865 198.308L171.972 200.203L171.027 198.737L173.97 196.409C174.16 196.259 174.425 196.037 174.765 195.745C175.105 195.452 175.467 195.142 175.851 194.815C176.22 194.499 176.567 194.2 176.892 193.919L178.027 195.128L175.813 197.701L176.126 195.704C176.224 195.888 176.391 196.16 176.629 196.52C176.863 196.906 177.104 197.287 177.353 197.661C177.598 198.062 177.804 198.352 177.969 198.531L186.445 208.073L185.958 208.315L180.383 191.336L181.723 190.277L196.913 199.685L196.548 200.081L189.692 190.329C189.544 190.113 189.336 189.849 189.066 189.539C188.808 189.243 188.539 188.932 188.258 188.607C187.977 188.282 187.712 187.992 187.462 187.737C187.225 187.496 187.04 187.308 186.91 187.174L188.834 187.259L185.919 189.171L184.996 187.688L187.741 185.516C187.873 185.412 188.087 185.231 188.383 184.973C188.679 184.715 189.004 184.434 189.359 184.13C189.698 183.837 190.009 183.568 190.29 183.322Z" fill="#003F19"/>
</svg>
