<svg width="150" height="150" viewBox="0 0 150 150" fill="none" xmlns="http://www.w3.org/2000/svg">
<rect width="150" height="150" rx="12" fill="white"/>
<path d="M106.979 109.896L109.896 106.979L102.083 99.1667V87.5H97.9167V100.833L106.979 109.896ZM45.8333 112.5C43.5417 112.5 41.5806 111.685 39.95 110.054C38.3194 108.424 37.5028 106.461 37.5 104.167V45.8333C37.5 43.5417 38.3167 41.5806 39.95 39.95C41.5833 38.3194 43.5444 37.5028 45.8333 37.5H104.167C106.458 37.5 108.421 38.3167 110.054 39.95C111.688 41.5833 112.503 43.5444 112.5 45.8333V73.75C111.181 73.125 109.826 72.5875 108.437 72.1375C107.049 71.6875 105.625 71.3569 104.167 71.1458V45.8333H45.8333V104.167H71.0417C71.25 105.694 71.5806 107.153 72.0333 108.542C72.4861 109.931 73.0236 111.25 73.6458 112.5H45.8333ZM45.8333 100V104.167V45.8333V71.1458V70.8333V100ZM54.1667 95.8333H71.1458C71.3542 94.375 71.6847 92.9514 72.1375 91.5625C72.5903 90.1736 73.0931 88.8194 73.6458 87.5H54.1667V95.8333ZM54.1667 79.1667H79.5833C81.8056 77.0833 84.2889 75.3472 87.0333 73.9583C89.7778 72.5694 92.7111 71.6319 95.8333 71.1458V70.8333H54.1667V79.1667ZM54.1667 62.5H95.8333V54.1667H54.1667V62.5ZM100 120.833C94.2361 120.833 89.3236 118.801 85.2625 114.738C81.2014 110.674 79.1694 105.761 79.1667 100C79.1639 94.2389 81.1958 89.3264 85.2625 85.2625C89.3292 81.1986 94.2417 79.1667 100 79.1667C105.758 79.1667 110.672 81.1986 114.742 85.2625C118.811 89.3264 120.842 94.2389 120.833 100C120.825 105.761 118.793 110.675 114.738 114.742C110.682 118.808 105.769 120.839 100 120.833Z" fill="#102F17"/>
</svg>
