<svg width="215" height="216" viewBox="0 0 215 216" fill="none" xmlns="http://www.w3.org/2000/svg">
<circle cx="107.145" cy="108.038" r="107.073" fill="white"/>
<mask id="path-2-outside-1_4403_6224" maskUnits="userSpaceOnUse" x="0.335075" y="1.34736" width="213.585" height="213.585" fill="black">
<rect fill="white" x="0.335075" y="1.34736" width="213.585" height="213.585"/>
<path fill-rule="evenodd" clip-rule="evenodd" d="M66.9645 172.262C31.5652 150.142 20.8001 103.513 42.9201 68.1138C65.04 32.7145 111.669 21.9494 147.068 44.0694C182.467 66.1893 193.232 112.818 171.112 148.217C148.992 183.617 102.364 194.382 66.9645 172.262ZM44.4223 69.0525C22.8208 103.622 33.3336 149.158 67.9032 170.759C102.473 192.361 148.009 181.848 169.61 147.279C191.212 112.709 180.699 67.1732 146.129 45.5716C111.56 23.9701 66.0239 34.4829 44.4223 69.0525ZM94.0105 139.727C115.801 152.096 141.956 154.105 168.899 147.498L169.32 149.218C142.047 155.907 115.407 153.909 93.1361 141.268C70.8572 128.623 53.0707 105.396 43.3801 69.8645L45.0891 69.3984C54.6842 104.579 72.2274 127.363 94.0105 139.727ZM87.8401 84.1077C97.4692 64.3405 100.809 44.7454 100.497 33.3011L102.268 33.2528C102.588 45.0069 99.1753 64.8832 89.4326 84.8835C79.6828 104.898 63.563 125.1 38.4236 137.399L37.6451 135.807C62.3473 123.723 78.218 103.86 87.8401 84.1077ZM126.891 128.783C138.261 108.546 155.771 89.9607 177.844 83.8502L177.372 82.143C154.658 88.4306 136.832 107.471 125.347 127.915C119.596 138.15 115.413 148.775 112.988 158.403C110.569 168.011 109.882 176.706 111.205 183.048L112.939 182.686C111.694 176.718 112.317 168.324 114.706 158.836C117.09 149.367 121.214 138.888 126.891 128.783ZM128.86 83.9568C149.529 98.1205 162.8 120.748 168.673 147.859L170.404 147.484C164.459 120.039 150.985 96.9712 129.861 82.4955C108.729 68.0146 80.056 62.2103 43.8727 69.0763L44.2029 70.8167C80.0296 64.0183 108.198 69.7982 128.86 83.9568ZM67.0582 170.58L145.284 45.3917L146.786 46.3305L68.5605 171.518L67.0582 170.58ZM168.984 148.28L43.9217 70.1322L44.8604 68.63L169.923 146.778L168.984 148.28Z"/>
</mask>
<path fill-rule="evenodd" clip-rule="evenodd" d="M66.9645 172.262C31.5652 150.142 20.8001 103.513 42.9201 68.1138C65.04 32.7145 111.669 21.9494 147.068 44.0694C182.467 66.1893 193.232 112.818 171.112 148.217C148.992 183.617 102.364 194.382 66.9645 172.262ZM44.4223 69.0525C22.8208 103.622 33.3336 149.158 67.9032 170.759C102.473 192.361 148.009 181.848 169.61 147.279C191.212 112.709 180.699 67.1732 146.129 45.5716C111.56 23.9701 66.0239 34.4829 44.4223 69.0525ZM94.0105 139.727C115.801 152.096 141.956 154.105 168.899 147.498L169.32 149.218C142.047 155.907 115.407 153.909 93.1361 141.268C70.8572 128.623 53.0707 105.396 43.3801 69.8645L45.0891 69.3984C54.6842 104.579 72.2274 127.363 94.0105 139.727ZM87.8401 84.1077C97.4692 64.3405 100.809 44.7454 100.497 33.3011L102.268 33.2528C102.588 45.0069 99.1753 64.8832 89.4326 84.8835C79.6828 104.898 63.563 125.1 38.4236 137.399L37.6451 135.807C62.3473 123.723 78.218 103.86 87.8401 84.1077ZM126.891 128.783C138.261 108.546 155.771 89.9607 177.844 83.8502L177.372 82.143C154.658 88.4306 136.832 107.471 125.347 127.915C119.596 138.15 115.413 148.775 112.988 158.403C110.569 168.011 109.882 176.706 111.205 183.048L112.939 182.686C111.694 176.718 112.317 168.324 114.706 158.836C117.09 149.367 121.214 138.888 126.891 128.783ZM128.86 83.9568C149.529 98.1205 162.8 120.748 168.673 147.859L170.404 147.484C164.459 120.039 150.985 96.9712 129.861 82.4955C108.729 68.0146 80.056 62.2103 43.8727 69.0763L44.2029 70.8167C80.0296 64.0183 108.198 69.7982 128.86 83.9568ZM67.0582 170.58L145.284 45.3917L146.786 46.3305L68.5605 171.518L67.0582 170.58ZM168.984 148.28L43.9217 70.1322L44.8604 68.63L169.923 146.778L168.984 148.28Z" fill="#528F49"/>
<path d="M168.899 147.498L170.332 147.146L169.981 145.713L168.547 146.064L168.899 147.498ZM94.0105 139.727L94.7392 138.443L94.0105 139.727ZM169.32 149.218L169.672 150.652L171.106 150.301L170.754 148.867L169.32 149.218ZM93.1361 141.268L92.4074 142.552L93.1361 141.268ZM43.3801 69.8645L42.9917 68.4404L41.5675 68.8288L41.9559 70.253L43.3801 69.8645ZM45.0891 69.3984L46.5133 69.01L46.1249 67.5858L44.7007 67.9743L45.0891 69.3984ZM100.497 33.3011L100.457 31.8254L98.9812 31.8657L99.0214 33.3413L100.497 33.3011ZM87.8401 84.1077L86.513 83.4613L87.8401 84.1077ZM102.268 33.2528L103.743 33.2125L103.703 31.7369L102.228 31.7771L102.268 33.2528ZM89.4326 84.8835L88.1055 84.237L89.4326 84.8835ZM38.4236 137.399L37.0976 138.047L37.7463 139.373L39.0723 138.725L38.4236 137.399ZM37.6451 135.807L36.9964 134.481L35.6704 135.13L36.3191 136.456L37.6451 135.807ZM177.844 83.8502L178.238 85.2729L179.661 84.8791L179.267 83.4564L177.844 83.8502ZM126.891 128.783L128.178 129.506L126.891 128.783ZM177.372 82.143L178.794 81.7492L178.4 80.3265L176.978 80.7203L177.372 82.143ZM125.347 127.915L126.634 128.638L125.347 127.915ZM112.988 158.403L111.557 158.043L112.988 158.403ZM111.205 183.048L109.76 183.349L110.061 184.794L111.506 184.493L111.205 183.048ZM112.939 182.686L113.24 184.131L114.685 183.83L114.384 182.385L112.939 182.686ZM114.706 158.836L113.275 158.475L114.706 158.836ZM168.673 147.859L167.23 148.172L167.543 149.614L168.985 149.302L168.673 147.859ZM128.86 83.9568L128.025 85.1745L128.86 83.9568ZM170.404 147.484L170.717 148.927L172.159 148.614L171.847 147.172L170.404 147.484ZM129.861 82.4955L130.696 81.2778L129.861 82.4955ZM43.8727 69.0763L43.5975 67.626L42.1472 67.9012L42.4224 69.3515L43.8727 69.0763ZM44.2029 70.8167L42.7526 71.0919L43.0278 72.5422L44.4781 72.267L44.2029 70.8167ZM145.284 45.3917L146.067 44.1399L144.815 43.3576L144.032 44.6095L145.284 45.3917ZM67.0582 170.58L65.8064 169.797L65.0241 171.049L66.276 171.831L67.0582 170.58ZM146.786 46.3305L148.038 47.1127L148.821 45.8608L147.569 45.0786L146.786 46.3305ZM68.5605 171.518L67.7782 172.77L69.0301 173.552L69.8124 172.3L68.5605 171.518ZM43.9217 70.1322L42.6699 69.35L41.8876 70.6018L43.1395 71.3841L43.9217 70.1322ZM168.984 148.28L168.202 149.532L169.454 150.314L170.236 149.062L168.984 148.28ZM44.8604 68.63L45.6427 67.3781L44.3908 66.5958L43.6086 67.8477L44.8604 68.63ZM169.923 146.778L171.175 147.56L171.957 146.308L170.705 145.526L169.923 146.778ZM41.6682 67.3316C19.1162 103.422 30.0916 150.962 66.1823 173.514L67.7468 171.01C33.0389 149.322 22.484 103.604 44.172 68.8961L41.6682 67.3316ZM147.85 42.8175C111.759 20.2655 64.2202 31.2408 41.6682 67.3316L44.172 68.8961C65.8599 34.1881 111.578 23.6333 146.286 45.3213L147.85 42.8175ZM172.364 148.999C194.916 112.909 183.941 65.3695 147.85 42.8175L146.286 45.3213C180.994 67.0092 191.548 112.727 169.86 147.435L172.364 148.999ZM66.1823 173.514C102.273 196.065 149.812 185.09 172.364 148.999L169.86 147.435C148.173 182.143 102.455 192.698 67.7468 171.01L66.1823 173.514ZM68.6855 169.508C34.8072 148.338 24.5047 103.713 45.6742 69.8348L43.1705 68.2703C21.1369 103.531 31.8599 149.978 67.121 172.011L68.6855 169.508ZM168.358 146.496C147.189 180.375 102.564 190.677 68.6855 169.508L67.121 172.011C102.382 194.045 148.828 183.322 170.862 148.061L168.358 146.496ZM145.347 46.8235C179.225 67.993 189.528 112.618 168.358 146.496L170.862 148.061C192.896 112.8 182.173 66.3533 146.911 44.3198L145.347 46.8235ZM45.6742 69.8348C66.8437 35.9565 111.469 25.654 145.347 46.8235L146.911 44.3198C111.65 22.2862 65.204 33.0092 43.1705 68.2703L45.6742 69.8348ZM168.547 146.064C141.881 152.603 116.13 150.585 94.7392 138.443L93.2818 141.011C115.473 153.606 142.032 155.606 169.25 148.932L168.547 146.064ZM170.754 148.867L170.332 147.146L167.465 147.85L167.887 149.57L170.754 148.867ZM92.4074 142.552C115.079 155.419 142.122 157.408 169.672 150.652L168.969 147.785C141.971 154.405 115.736 152.398 93.8647 139.984L92.4074 142.552ZM41.9559 70.253C51.7262 106.076 69.7153 129.672 92.4074 142.552L93.8647 139.984C71.999 127.573 54.4153 104.716 44.8043 69.4761L41.9559 70.253ZM44.7007 67.9743L42.9917 68.4404L43.7685 71.2887L45.4775 70.8226L44.7007 67.9743ZM94.7392 138.443C73.3692 126.314 56.0288 103.899 46.5133 69.01L43.6649 69.7868C53.3397 105.26 71.0856 128.413 93.2818 141.011L94.7392 138.443ZM99.0214 33.3413C99.3266 44.5274 96.0475 63.8882 86.513 83.4613L89.1672 84.7542C98.8909 64.7927 102.292 44.9633 101.973 33.2608L99.0214 33.3413ZM102.228 31.7771L100.457 31.8254L100.537 34.7767L102.308 34.7284L102.228 31.7771ZM90.7597 85.53C100.597 65.3354 104.071 45.2248 103.743 33.2125L100.792 33.293C101.106 44.789 97.7536 64.4309 88.1055 84.237L90.7597 85.53ZM39.0723 138.725C64.5762 126.248 80.9034 105.763 90.7597 85.53L88.1055 84.237C78.4621 104.033 62.5499 123.952 37.7749 136.073L39.0723 138.725ZM36.3191 136.456L37.0976 138.047L39.7496 136.75L38.9711 135.159L36.3191 136.456ZM86.513 83.4613C76.9973 102.995 61.3341 122.575 36.9964 134.481L38.2938 137.133C63.3604 124.87 79.4386 104.725 89.1672 84.7542L86.513 83.4613ZM177.45 82.4275C154.844 88.6856 137.071 107.65 125.604 128.059L128.178 129.506C139.451 109.441 156.698 91.2358 178.238 85.2729L177.45 82.4275ZM175.949 82.5368L176.421 84.2441L179.267 83.4564L178.794 81.7492L175.949 82.5368ZM126.634 128.638C138.023 108.366 155.585 89.7057 177.765 83.5657L176.978 80.7203C153.731 87.1555 135.642 106.576 124.06 127.192L126.634 128.638ZM114.42 158.763C116.811 149.268 120.944 138.765 126.634 128.638L124.06 127.192C118.249 137.535 114.015 148.282 111.557 158.043L114.42 158.763ZM112.65 182.746C111.392 176.716 112.026 168.272 114.42 158.763L111.557 158.043C109.112 167.751 108.372 176.695 109.76 183.349L112.65 182.746ZM112.637 181.241L110.903 181.603L111.506 184.493L113.24 184.131L112.637 181.241ZM113.275 158.475C110.86 168.063 110.184 176.708 111.494 182.987L114.384 182.385C113.204 176.729 113.774 168.584 116.138 159.196L113.275 158.475ZM125.604 128.059C119.866 138.273 115.692 148.874 113.275 158.475L116.138 159.196C118.488 149.86 122.562 139.503 128.178 129.506L125.604 128.059ZM170.116 147.547C164.183 120.157 150.743 97.1628 129.694 82.739L128.025 85.1745C148.315 99.0782 161.418 121.338 167.23 148.172L170.116 147.547ZM170.092 146.041L168.36 146.416L168.985 149.302L170.717 148.927L170.092 146.041ZM129.027 83.7132C149.772 97.9289 163.077 120.629 168.961 147.797L171.847 147.172C165.842 119.448 152.199 96.0136 130.696 81.2778L129.027 83.7132ZM44.1479 70.5266C80.0341 63.717 108.287 69.5009 129.027 83.7132L130.696 81.2778C109.172 66.5284 80.078 60.7036 43.5975 67.626L44.1479 70.5266ZM45.6532 70.5414L45.323 68.8011L42.4224 69.3515L42.7526 71.0919L45.6532 70.5414ZM129.694 82.739C108.641 68.3119 80.0517 62.5116 43.9277 69.3663L44.4781 72.267C80.0076 65.525 107.756 71.2844 128.025 85.1745L129.694 82.739ZM144.032 44.6095L65.8064 169.797L68.3101 171.362L146.536 46.174L144.032 44.6095ZM147.569 45.0786L146.067 44.1399L144.502 46.6436L146.004 47.5823L147.569 45.0786ZM69.8124 172.3L148.038 47.1127L145.535 45.5482L67.3086 170.736L69.8124 172.3ZM66.276 171.831L67.7782 172.77L69.3428 170.266L67.8405 169.328L66.276 171.831ZM43.1395 71.3841L168.202 149.532L169.767 147.028L44.704 68.8803L43.1395 71.3841ZM43.6086 67.8477L42.6699 69.35L45.1736 70.9145L46.1123 69.4122L43.6086 67.8477ZM170.705 145.526L45.6427 67.3781L44.0782 69.8819L169.141 148.03L170.705 145.526ZM170.236 149.062L171.175 147.56L168.671 145.996L167.733 147.498L170.236 149.062Z" fill="#528F49" mask="url(#path-2-outside-1_4403_6224)"/>
<g filter="url(#filter0_f_4403_6224)">
<ellipse cx="106.759" cy="109.708" rx="75.5808" ry="26.9931" fill="white"/>
</g>
<g filter="url(#filter1_d_4403_6224)">
<path d="M49.8642 125.688V94.5731H65.9939C68.9808 94.5731 71.1049 95.1539 72.3661 96.3155C73.6605 97.4771 74.3076 99.1697 74.3076 101.393C74.3076 103.617 73.8928 105.343 73.0631 106.571C72.2665 107.766 71.1879 108.546 69.8272 108.911V109.209C73.843 109.906 75.8509 112.644 75.8509 117.424C75.8509 119.913 75.1871 121.921 73.8596 123.447C72.532 124.941 70.4909 125.688 67.7363 125.688H49.8642ZM63.7038 113.292H59.8208V118.369H63.6541C65.048 118.369 65.7449 117.523 65.7449 115.83C65.7449 114.138 65.0646 113.292 63.7038 113.292ZM62.9571 101.393H59.8208V106.023H62.9073C64.1685 106.023 64.7991 105.26 64.7991 103.733C64.7991 102.173 64.1851 101.393 62.9571 101.393ZM106.457 125.688H95.5051L91.4229 116.428H89.2822V125.688H79.3256V94.5731H95.0073C102.143 94.5731 105.711 98.2073 105.711 105.476C105.711 110.454 104.167 113.74 101.081 115.333L106.457 125.688ZM89.2822 102.538V108.761H91.5722C92.767 108.761 93.6299 108.645 94.161 108.413C94.7252 108.147 95.0073 107.566 95.0073 106.67V104.629C95.0073 103.733 94.7252 103.169 94.161 102.937C93.6299 102.671 92.767 102.538 91.5722 102.538H89.2822ZM108.709 125.14L110.103 116.926C113.157 117.689 115.895 118.071 118.317 118.071C120.773 118.071 122.748 117.971 124.242 117.772V115.283L119.761 114.885C115.712 114.52 112.924 113.557 111.398 111.997C109.904 110.404 109.157 108.064 109.157 104.978C109.157 100.73 110.07 97.809 111.895 96.2159C113.754 94.6229 116.89 93.8263 121.304 93.8263C125.718 93.8263 129.701 94.2412 133.252 95.0709L132.008 103.036C128.921 102.538 126.449 102.289 124.59 102.289C122.732 102.289 121.155 102.372 119.861 102.538V104.978L123.445 105.326C127.793 105.758 130.796 106.803 132.456 108.463C134.115 110.089 134.945 112.362 134.945 115.283C134.945 117.374 134.663 119.149 134.099 120.61C133.534 122.037 132.854 123.132 132.058 123.895C131.294 124.625 130.199 125.19 128.772 125.588C127.345 125.986 126.084 126.219 124.988 126.285C123.926 126.384 122.499 126.434 120.707 126.434C116.392 126.434 112.393 126.003 108.709 125.14ZM165.818 125.688H154.866L150.783 116.428H148.643V125.688H138.686V94.5731H154.368C161.503 94.5731 165.071 98.2073 165.071 105.476C165.071 110.454 163.528 113.74 160.441 115.333L165.818 125.688ZM148.643 102.538V108.761H150.933C152.127 108.761 152.99 108.645 153.521 108.413C154.086 108.147 154.368 107.566 154.368 106.67V104.629C154.368 103.733 154.086 103.169 153.521 102.937C152.99 102.671 152.127 102.538 150.933 102.538H148.643Z" fill="#528F49"/>
</g>
<path d="M60.5835 26.5138C61.1135 26.4727 61.6044 26.5656 62.0565 26.7924C62.5085 27.0193 62.8821 27.3746 63.1771 27.8584C63.6384 28.6148 63.7558 29.4109 63.5295 30.2468C63.3032 31.0826 62.8063 31.7417 62.0388 32.2242L58.1139 34.6916L52.482 25.4561L56.1191 23.1696C56.8691 22.6981 57.6517 22.5469 58.4666 22.7159C59.2849 22.8707 59.9167 23.3131 60.3619 24.0432C60.85 24.8436 60.9239 25.6671 60.5835 26.5138ZM56.988 24.5946L54.8555 25.9352L56.3359 28.3628L58.4684 27.0222C58.7998 26.8138 59.0092 26.524 59.0965 26.1528C59.1784 25.7727 59.1148 25.4112 58.9056 25.0682C58.6964 24.7251 58.4087 24.5105 58.0425 24.4244C57.6709 24.3295 57.3194 24.3862 56.988 24.5946ZM61.1699 30.7993C61.5187 30.58 61.7358 30.2732 61.8211 29.8789C61.9098 29.4703 61.8442 29.0857 61.6243 28.725C61.4044 28.3644 61.0972 28.1377 60.7028 28.045C60.3118 27.9379 59.9418 27.9941 59.5929 28.2134L57.1726 29.7349L58.7495 32.3209L61.1699 30.7993Z" fill="#528F49"/>
<path d="M68.347 20.1031L69.8529 19.3836L73.092 26.3985L71.5861 27.118L71.1715 26.2201C71.0485 27.1579 70.4944 27.8622 69.5091 28.3329C68.7096 28.7149 67.9448 28.7663 67.2146 28.4873C66.4844 28.2082 65.912 27.6198 65.4974 26.7219L63.5085 22.4147L65.0145 21.6952L66.932 25.848C67.1739 26.3718 67.499 26.7074 67.9075 26.8548C68.3159 27.0021 68.7618 26.9603 69.2452 26.7294C69.775 26.4762 70.1271 26.1083 70.3012 25.6255C70.4711 25.1333 70.3984 24.5458 70.0831 23.863L68.347 20.1031Z" fill="#528F49"/>
<path d="M75.3944 19.5C75.478 19.7436 75.6759 19.8917 75.9881 19.9443C76.3066 19.9838 76.6735 19.9896 77.0887 19.9617C77.5102 19.9206 77.9385 19.899 78.3734 19.8968C78.8084 19.8947 79.2137 20.0126 79.5894 20.2503C79.9715 20.4749 80.2478 20.8357 80.4185 21.3326C80.6594 22.0341 80.5767 22.6816 80.1705 23.2751C79.7741 23.8651 79.1683 24.3055 78.3533 24.5964C77.6353 24.8527 76.9673 24.9216 76.3494 24.8031C75.7314 24.6846 75.214 24.399 74.7972 23.9462L75.8797 22.6738C76.3728 23.2853 77.0318 23.4439 77.8565 23.1495C78.6812 22.8551 78.9999 22.4351 78.8125 21.8894C78.7322 21.6556 78.5312 21.5141 78.2093 21.4649C77.8971 21.4122 77.5303 21.4064 77.1087 21.4475C76.6935 21.4754 76.2685 21.4904 75.8335 21.4926C75.3986 21.4947 74.9917 21.3883 74.613 21.1735C74.2406 20.9455 73.9708 20.5878 73.8035 20.1007C73.5727 19.4283 73.6392 18.7975 74.0033 18.2082C74.377 17.6154 74.9422 17.1839 75.699 16.9138C76.3006 16.699 76.8811 16.645 77.4405 16.7516C78.0062 16.8449 78.4972 17.0853 78.9134 17.4727L77.845 18.6909C77.402 18.2255 76.8506 18.1106 76.1909 18.3461C75.8901 18.4535 75.6612 18.6117 75.5043 18.8209C75.344 19.0203 75.3074 19.2466 75.3944 19.5Z" fill="#528F49"/>
<path d="M82.6415 13.4117C82.4957 13.6659 82.2839 13.8314 82.0059 13.9084C81.7279 13.9854 81.4582 13.9532 81.1969 13.8118C80.9429 13.6576 80.779 13.4411 80.7051 13.1623C80.6312 12.8835 80.6671 12.617 80.8129 12.3628C80.956 12.0987 81.1716 11.9268 81.4595 11.847C81.7474 11.7673 82.0184 11.8045 82.2724 11.9586C82.5237 12.1028 82.6864 12.3143 82.7603 12.5932C82.8342 12.872 82.7946 13.1448 82.6415 13.4117ZM83.4781 22.7202L81.4986 15.2514L83.107 14.806L85.0865 22.2748L83.4781 22.7202Z" fill="#528F49"/>
<path d="M90.3953 12.9572C91.2657 12.792 92.0193 12.9373 92.656 13.3932C93.2928 13.8491 93.6986 14.5637 93.8737 15.5371L94.7134 20.2063L93.0737 20.5175L92.2641 16.0156C92.162 15.4478 91.9318 15.0406 91.5734 14.794C91.2151 14.5475 90.7727 14.4741 90.2464 14.574C89.6695 14.6835 89.2367 14.9544 88.9481 15.3866C88.6577 15.8088 88.579 16.3899 88.7121 17.1301L89.4451 21.2062L87.8054 21.5174L86.4379 13.9127L88.0776 13.6015L88.2526 14.5749C88.6082 13.7001 89.3224 13.1608 90.3953 12.9572Z" fill="#528F49"/>
<path d="M98.5263 16.5967C98.689 17.1734 99.0019 17.6047 99.4651 17.8904C99.9276 18.1659 100.477 18.2799 101.114 18.2325C101.998 18.1667 102.639 17.7987 103.038 17.1285L104.463 17.8282C103.778 19.0052 102.691 19.6492 101.201 19.7601C99.948 19.8534 98.9105 19.5484 98.0888 18.8451C97.2665 18.1316 96.816 17.1889 96.7373 16.0171C96.66 14.8658 96.9755 13.8765 97.684 13.0489C98.3918 12.2111 99.3416 11.7479 100.533 11.6591C101.663 11.575 102.615 11.9019 103.387 12.6398C104.17 13.377 104.599 14.3109 104.675 15.4416C104.687 15.6164 104.682 15.8492 104.66 16.14L98.5263 16.5967ZM98.4198 15.241L102.951 14.9037C102.795 14.2851 102.502 13.8318 102.069 13.5437C101.647 13.2549 101.164 13.1307 100.619 13.1713C100.003 13.2172 99.5007 13.425 99.1125 13.7948C98.7244 14.1646 98.4934 14.6467 98.4198 15.241Z" fill="#528F49"/>
<path d="M108.864 13.7488C108.855 14.0063 108.987 14.2163 109.26 14.3788C109.544 14.5314 109.884 14.6702 110.282 14.7953C110.69 14.9103 111.098 15.0459 111.505 15.2021C111.912 15.3584 112.249 15.6156 112.515 15.9738C112.792 16.322 112.921 16.7587 112.903 17.2838C112.878 18.0251 112.57 18.5984 111.979 19.0036C111.398 19.4092 110.675 19.5993 109.81 19.574C109.048 19.5516 108.399 19.3729 107.865 19.0377C107.33 18.7025 106.948 18.2482 106.72 17.6747L108.185 16.8827C108.428 17.6319 108.987 18.0193 109.862 18.045C110.737 18.0706 111.185 17.7951 111.204 17.2186C111.213 16.9714 111.076 16.7664 110.792 16.6036C110.52 16.441 110.179 16.3022 109.771 16.1871C109.373 16.0621 108.971 15.9215 108.564 15.7653C108.157 15.6091 107.814 15.362 107.537 15.0241C107.271 14.6761 107.146 14.2448 107.164 13.73C107.188 13.0195 107.475 12.4559 108.026 12.0392C108.586 11.6227 109.268 11.4263 110.071 11.4498C110.71 11.4685 111.271 11.6292 111.756 11.932C112.251 12.2248 112.624 12.6274 112.874 13.1397L111.442 13.8862C111.194 13.2915 110.72 12.9839 110.02 12.9633C109.7 12.954 109.43 13.0182 109.209 13.156C108.988 13.2835 108.873 13.4811 108.864 13.7488Z" fill="#528F49"/>
<path d="M117.418 14.294C117.386 14.5495 117.498 14.771 117.755 14.9585C118.023 15.1371 118.35 15.3072 118.734 15.469C119.13 15.6219 119.524 15.7951 119.915 15.9889C120.306 16.1826 120.617 16.4703 120.849 16.852C121.093 17.2247 121.182 17.6717 121.116 18.193C121.024 18.9289 120.664 19.471 120.039 19.8192C119.424 20.1686 118.687 20.2902 117.828 20.1839C117.071 20.0902 116.442 19.8514 115.94 19.4675C115.438 19.0836 115.1 18.5953 114.926 18.0028L116.456 17.3514C116.629 18.1203 117.15 18.5585 118.02 18.666C118.889 18.7736 119.359 18.5412 119.431 17.9688C119.462 17.7235 119.344 17.5065 119.077 17.3177C118.821 17.1303 118.494 16.9601 118.098 16.8073C117.714 16.6455 117.326 16.4677 116.935 16.274C116.544 16.0802 116.226 15.8021 115.981 15.4396C115.748 15.0681 115.663 14.6269 115.728 14.1158C115.817 13.4106 116.154 12.8762 116.74 12.5127C117.336 12.1505 118.032 12.0188 118.83 12.1175C119.464 12.196 120.008 12.4087 120.463 12.7556C120.929 13.0936 121.263 13.5295 121.466 14.0632L119.972 14.6724C119.779 14.0569 119.336 13.7061 118.64 13.62C118.324 13.5808 118.049 13.6194 117.816 13.7359C117.584 13.8422 117.452 14.0282 117.418 14.294Z" fill="#528F49"/>
<path d="M133.997 23.5555L132.911 19.1264L130.895 18.5315L129.788 22.3132L128.083 21.8102L131.123 11.429L135.273 12.6537C136.202 12.9278 136.892 13.4859 137.343 14.328C137.807 15.1631 137.903 16.0454 137.631 16.9747C137.437 17.6372 137.066 18.1883 136.519 18.6283C135.984 19.0612 135.374 19.3109 134.689 19.3773L135.864 24.1066L133.997 23.5555ZM132.359 13.5337L131.342 17.004L133.788 17.7257C134.242 17.8598 134.677 17.8055 135.092 17.5627C135.506 17.3198 135.785 16.9562 135.926 16.4717C136.068 15.9873 136.03 15.5303 135.813 15.1008C135.595 14.6714 135.259 14.3895 134.804 14.2554L132.359 13.5337Z" fill="#528F49"/>
<path d="M140.249 22.4892C140.134 23.0789 140.219 23.608 140.502 24.0763C140.79 24.5352 141.227 24.8901 141.814 25.1411C142.629 25.4892 143.364 25.4559 144.02 25.0413L144.972 26.3223C143.835 27.0576 142.58 27.1318 141.206 26.5449C140.051 26.0511 139.265 25.3011 138.851 24.295C138.44 23.2793 138.463 22.2303 138.919 21.148C139.367 20.0846 140.091 19.3467 141.092 18.9341C142.097 18.5121 143.149 18.5358 144.248 19.0054C145.29 19.4506 145.989 20.1804 146.344 21.1948C146.709 22.2133 146.671 23.2447 146.231 24.289C146.163 24.4505 146.054 24.656 145.904 24.9056L140.249 22.4892ZM140.762 21.2298L144.94 23.0149C145.08 22.3912 145.022 21.8513 144.767 21.395C144.522 20.9428 144.148 20.6095 143.646 20.395C143.078 20.1521 142.538 20.1064 142.027 20.2578C141.516 20.4092 141.094 20.7332 140.762 21.2298Z" fill="#528F49"/>
<path d="M150.7 24.7118C150.576 24.9379 150.599 25.1863 150.768 25.4571C150.951 25.7238 151.191 26.0045 151.488 26.2992C151.799 26.5899 152.1 26.8986 152.391 27.2254C152.682 27.5522 152.865 27.9369 152.94 28.3795C153.03 28.818 152.948 29.2679 152.696 29.729C152.341 30.38 151.81 30.7508 151.103 30.8412C150.406 30.9366 149.679 30.7741 148.922 30.3536C148.256 29.9832 147.761 29.5252 147.436 28.9796C147.112 28.434 146.978 27.8525 147.033 27.235L148.689 27.2009C148.568 27.9821 148.89 28.5854 149.655 29.0108C150.421 29.4363 150.942 29.3959 151.218 28.8895C151.337 28.6725 151.307 28.4261 151.129 28.1503C150.96 27.8796 150.72 27.5988 150.409 27.3082C150.112 27.0135 149.818 26.7028 149.527 26.376C149.236 26.0492 149.043 25.671 148.949 25.2415C148.869 24.808 148.952 24.3651 149.199 23.913C149.54 23.2892 150.048 22.9175 150.724 22.798C151.408 22.6835 152.102 22.8215 152.804 23.2119C153.362 23.5223 153.789 23.9242 154.083 24.4176C154.39 24.907 154.54 25.4383 154.533 26.0115L152.926 26.02C152.973 25.3745 152.691 24.8815 152.078 24.5411C151.799 24.3859 151.531 24.3191 151.272 24.3406C151.019 24.353 150.828 24.4768 150.7 24.7118Z" fill="#528F49"/>
<path d="M161.789 28.9012C162.656 29.5136 163.17 30.3629 163.333 31.4492C163.502 32.527 163.264 33.5319 162.619 34.4637C161.968 35.4041 161.113 35.9792 160.053 36.189C158.993 36.3988 158.03 36.1976 157.164 35.5852C156.205 34.9075 155.715 34.0315 155.694 32.9572L153.311 36.4009L151.948 35.4378L158.103 26.5427L159.466 27.5058L158.833 28.4207C159.845 28.0633 160.83 28.2235 161.789 28.9012ZM156.824 32.5453C156.939 33.194 157.283 33.7205 157.855 34.1248C158.427 34.5291 159.034 34.6743 159.677 34.5607C160.325 34.4385 160.851 34.0851 161.256 33.5006C161.66 32.9161 161.805 32.2994 161.69 31.6507C161.581 30.9935 161.241 30.4627 160.669 30.0585C160.097 29.6542 159.486 29.5131 158.838 29.6353C158.196 29.749 157.672 30.0981 157.268 30.6826C156.863 31.2672 156.716 31.888 156.824 32.5453Z" fill="#528F49"/>
<path d="M164.755 41.7211C163.914 40.9615 163.458 40.0222 163.387 38.9034C163.317 37.7845 163.66 36.7963 164.416 35.9387C165.173 35.0812 166.104 34.6247 167.211 34.5693C168.318 34.5138 169.291 34.8659 170.132 35.6256C170.981 36.3921 171.437 37.3313 171.5 38.4433C171.57 39.5622 171.228 40.5504 170.471 41.408C169.715 42.2655 168.783 42.722 167.676 42.7774C166.577 42.8397 165.604 42.4876 164.755 41.7211ZM165.016 38.8331C165.053 39.4915 165.324 40.0485 165.828 40.5043C166.333 40.9601 166.911 41.1695 167.561 41.1326C168.212 41.0957 168.769 40.8146 169.233 40.2893C169.696 39.7639 169.909 39.172 169.872 38.5136C169.834 37.8552 169.563 37.2981 169.059 36.8424C168.554 36.3866 167.977 36.1772 167.326 36.2141C166.675 36.251 166.118 36.5321 165.655 37.0574C165.191 37.5828 164.978 38.1746 165.016 38.8331Z" fill="#528F49"/>
<path d="M178.155 43.8131C178.74 44.4784 179.002 45.2059 178.942 45.9956C178.882 46.7853 178.485 47.5115 177.751 48.1743L174.23 51.3534L173.127 50.1002L176.523 47.035C176.951 46.6484 177.178 46.2355 177.203 45.7963C177.228 45.3571 177.064 44.9364 176.71 44.5341C176.322 44.0931 175.872 43.8615 175.358 43.8393C174.853 43.8102 174.321 44.0476 173.762 44.5515L170.688 47.3268L169.586 46.0735L175.321 40.8958L176.424 42.1491L175.689 42.8118C176.612 42.6593 177.433 42.9931 178.155 43.8131Z" fill="#528F49"/>
<path d="M181.279 51.4781C181.071 51.6303 180.986 51.8654 181.023 52.1833C181.074 52.5035 181.17 52.8608 181.311 53.2551C181.467 53.6517 181.607 54.0604 181.729 54.4813C181.852 54.9023 181.853 55.3295 181.731 55.7631C181.625 56.1991 181.359 56.5723 180.935 56.8828C180.337 57.3212 179.7 57.4302 179.025 57.2098C178.355 56.9979 177.77 56.5394 177.268 55.8345C176.826 55.2135 176.575 54.5862 176.516 53.9526C176.457 53.3191 176.584 52.7342 176.898 52.1979L178.405 52.8754C177.962 53.532 177.994 54.217 178.502 54.9303C179.01 55.6437 179.496 55.8299 179.962 55.4889C180.161 55.3428 180.24 55.1066 180.197 54.7803C180.16 54.4623 180.064 54.1051 179.908 53.7085C179.767 53.3142 179.634 52.9066 179.512 52.4857C179.389 52.0648 179.377 51.6394 179.476 51.2096C179.589 50.7821 179.853 50.4161 180.268 50.1117C180.842 49.6915 181.458 49.5718 182.118 49.7525C182.784 49.9416 183.35 50.3634 183.816 51.018C184.186 51.5383 184.399 52.0852 184.453 52.6585C184.521 53.2341 184.429 53.7802 184.178 54.2967L182.726 53.6169C183.044 53.0517 183 52.4837 182.594 51.913C182.409 51.6529 182.195 51.4773 181.954 51.3863C181.72 51.2892 181.495 51.3198 181.279 51.4781Z" fill="#528F49"/>
<path d="M189.065 56.7412C188.783 56.6747 188.567 56.5182 188.417 56.2717C188.268 56.0253 188.224 55.7549 188.286 55.4606C188.362 55.1696 188.522 54.9475 188.767 54.7943C189.011 54.641 189.274 54.5976 189.556 54.6642C189.846 54.7253 190.069 54.8835 190.224 55.1387C190.379 55.3939 190.419 55.6671 190.343 55.958C190.275 56.2435 190.119 56.4629 189.875 56.6162C189.631 56.7694 189.36 56.8111 189.065 56.7412ZM180.456 60.2798L187.002 56.1746L187.869 57.6004L181.323 61.7057L180.456 60.2798Z" fill="#528F49"/>
<path d="M191.786 64.4278C192.258 65.3784 192.312 66.3692 191.95 67.4001C191.587 68.4311 190.897 69.2075 189.88 69.7292C188.871 70.2463 187.847 70.349 186.807 70.0372C185.776 69.7207 185.025 69.0872 184.553 68.1366C184.031 67.0845 184.02 66.0772 184.52 65.1147L183.53 65.6223L182.788 64.1272L192.414 59.1915L193.156 60.6866L189.429 62.5975C190.479 62.7656 191.264 63.3757 191.786 64.4278ZM185.695 65.2934C185.489 65.9202 185.541 66.5474 185.853 67.175C186.164 67.8026 186.629 68.2183 187.247 68.422C187.875 68.6211 188.505 68.5585 189.138 68.2341C189.77 67.9098 190.19 67.4342 190.396 66.8074C190.612 66.1758 190.564 65.5463 190.253 64.9187C189.942 64.2911 189.472 63.8778 188.844 63.6787C188.226 63.475 187.6 63.5352 186.968 63.8596C186.335 64.1839 185.911 64.6619 185.695 65.2934Z" fill="#528F49"/>
<path d="M196.347 71.7326C196.081 71.6187 195.895 71.4275 195.789 71.1591C195.684 70.8906 195.687 70.6168 195.798 70.3377C195.923 70.0642 196.119 69.873 196.386 69.7641C196.654 69.6551 196.92 69.6576 197.186 69.7715C197.462 69.8816 197.655 70.0756 197.764 70.3537C197.873 70.6317 197.866 70.9075 197.741 71.1809C197.625 71.4505 197.434 71.6397 197.167 71.7487C196.9 71.8576 196.626 71.8523 196.347 71.7326ZM187.256 73.7383L194.411 70.8202L195.022 72.3734L187.867 75.2915L187.256 73.7383Z" fill="#528F49"/>
<path d="M188.84 77.9864L199.493 74.2748L200.023 75.8573L189.37 79.5689L188.84 77.9864Z" fill="#528F49"/>
<path d="M199.455 81.2636C199.202 81.1227 199.036 80.9134 198.959 80.6355C198.881 80.3576 198.912 80.0857 199.052 79.8197C199.204 79.5608 199.419 79.3911 199.696 79.3105C199.973 79.2299 200.238 79.26 200.491 79.4009C200.754 79.5389 200.926 79.7518 201.006 80.0396C201.087 80.3274 201.05 80.6008 200.898 80.8597C200.756 81.1157 200.546 81.2841 200.269 81.3647C199.992 81.4453 199.721 81.4116 199.455 81.2636ZM190.203 82.3145L197.622 80.1555L198.07 81.7632L190.651 83.9221L190.203 82.3145Z" fill="#528F49"/>
<path d="M198.221 89.5867L197.825 87.7117L194.204 88.5138C193.892 88.5829 193.681 88.7036 193.57 88.8759C193.469 89.046 193.437 89.2694 193.474 89.546C193.524 89.8305 193.602 90.1772 193.709 90.586L192.246 90.9102C191.832 89.6937 191.748 88.7731 191.995 88.1485C192.253 87.5217 192.874 87.0992 193.86 86.8808L197.481 86.0786L197.188 84.6875L198.757 84.3399L199.05 85.731L200.68 85.3701L201.507 86.8962L199.394 87.3641L199.79 89.2391L198.221 89.5867Z" fill="#528F49"/>
<path d="M200.955 97.5535L201.166 99.318L192.904 97.3875C190.833 96.9056 189.744 95.7783 189.635 94.0058L191.183 93.8071C191.215 94.3327 191.378 94.7376 191.671 95.0219C191.954 95.3076 192.374 95.5185 192.93 95.6549L193.092 95.7119L200.228 91.4928L200.445 93.3034L195.155 96.3039L200.955 97.5535Z" fill="#528F49"/>
<path d="M201.176 113.573L201.1 115.24L193.38 114.921L193.456 113.254L194.568 113.3C193.722 112.636 193.325 111.717 193.379 110.544C193.428 109.484 193.86 108.595 194.677 107.876C195.504 107.157 196.484 106.821 197.616 106.868C198.758 106.915 199.704 107.331 200.452 108.114C201.199 108.898 201.549 109.82 201.501 110.88C201.447 112.053 200.973 112.935 200.08 113.527L201.176 113.573ZM195.732 109.156C195.248 109.6 194.989 110.172 194.957 110.872C194.925 111.572 195.13 112.163 195.572 112.645C196.025 113.128 196.606 113.384 197.316 113.413C198.026 113.443 198.624 113.235 199.108 112.791C199.603 112.348 199.866 111.776 199.898 111.076C199.93 110.376 199.72 109.785 199.268 109.303C198.826 108.82 198.25 108.565 197.539 108.535C196.829 108.506 196.227 108.713 195.732 109.156Z" fill="#528F49"/>
<path d="M200.241 123.008C200.099 123.883 199.705 124.545 199.058 124.994C198.412 125.443 197.6 125.589 196.624 125.433L191.939 124.68L192.206 123.033L196.722 123.758C197.292 123.85 197.754 123.767 198.109 123.511C198.463 123.255 198.683 122.863 198.769 122.334C198.863 121.754 198.756 121.257 198.447 120.842C198.149 120.429 197.628 120.163 196.886 120.044L192.797 119.387L193.063 117.74L200.692 118.965L200.426 120.612L199.449 120.455C200.152 121.079 200.416 121.93 200.241 123.008Z" fill="#528F49"/>
<path d="M200.09 136.299L199.637 137.905L189.232 134.945L189.686 133.339L190.756 133.643C190.085 132.799 189.909 131.812 190.228 130.682C190.516 129.66 191.139 128.895 192.097 128.386C193.064 127.879 194.093 127.781 195.183 128.091C196.283 128.404 197.107 129.029 197.656 129.967C198.205 130.905 198.335 131.884 198.046 132.906C197.727 134.036 197.066 134.785 196.062 135.153L200.09 136.299ZM192.831 129.88C192.259 130.199 191.878 130.696 191.687 131.37C191.497 132.044 191.562 132.668 191.882 133.241C192.211 133.816 192.718 134.202 193.402 134.396C194.086 134.591 194.713 134.528 195.285 134.209C195.867 133.892 196.253 133.397 196.444 132.723C196.634 132.049 196.565 131.424 196.235 130.848C195.915 130.275 195.413 129.891 194.729 129.697C194.046 129.502 193.413 129.563 192.831 129.88Z" fill="#528F49"/>
<path d="M184.695 145.467C185.144 144.528 185.739 143.832 186.48 143.379C187.217 142.935 188.019 142.763 188.885 142.862L189.032 144.634C187.752 144.494 186.819 145.037 186.233 146.265C185.944 146.869 185.845 147.376 185.934 147.786C186.029 148.21 186.266 148.514 186.646 148.698C187.045 148.892 187.423 148.875 187.783 148.649C188.151 148.427 188.658 147.963 189.304 147.257C189.665 146.859 189.974 146.546 190.232 146.316C190.49 146.086 190.804 145.86 191.172 145.639C191.546 145.43 191.932 145.326 192.332 145.325C192.732 145.325 193.15 145.43 193.585 145.642C194.447 146.06 194.982 146.697 195.19 147.554C195.406 148.415 195.308 149.277 194.895 150.142C194.523 150.923 194.006 151.514 193.347 151.915C192.687 152.316 191.948 152.513 191.13 152.506L190.997 150.775C192.101 150.807 192.881 150.344 193.338 149.386C193.56 148.921 193.627 148.496 193.537 148.109C193.457 147.726 193.232 147.445 192.861 147.265C192.5 147.09 192.146 147.09 191.8 147.266C191.458 147.455 190.994 147.865 190.407 148.496C190.109 148.81 189.887 149.034 189.743 149.17C189.603 149.32 189.395 149.517 189.118 149.76C188.838 150.014 188.595 150.188 188.389 150.283C188.184 150.378 187.942 150.466 187.663 150.549C187.38 150.64 187.095 150.662 186.809 150.615C186.524 150.568 186.223 150.468 185.908 150.315C185.027 149.888 184.481 149.228 184.268 148.334C184.06 147.455 184.203 146.499 184.695 145.467Z" fill="#528F49"/>
<path d="M185.874 159.601L184.992 161.018L178.467 156.881L179.348 155.463L180.183 155.993C179.78 155.14 179.867 154.249 180.443 153.322C180.911 152.569 181.528 152.113 182.295 151.953C183.062 151.792 183.863 151.977 184.698 152.507L188.705 155.047L187.824 156.464L183.961 154.015C183.473 153.706 183.018 153.6 182.593 153.697C182.169 153.794 181.816 154.07 181.533 154.525C181.223 155.024 181.125 155.523 181.239 156.022C181.362 156.527 181.741 156.981 182.376 157.383L185.874 159.601Z" fill="#528F49"/>
<path d="M180.223 163.972C180.02 163.812 179.774 163.795 179.482 163.919C179.193 164.058 178.881 164.251 178.546 164.499C178.214 164.761 177.865 165.011 177.5 165.248C177.135 165.484 176.729 165.604 176.285 165.607C175.841 165.625 175.414 165.471 175.001 165.145C174.419 164.686 174.139 164.097 174.16 163.378C174.175 162.668 174.447 161.971 174.976 161.286C175.442 160.682 175.967 160.264 176.551 160.029C177.136 159.795 177.726 159.756 178.322 159.911L178.098 161.566C177.352 161.318 176.712 161.541 176.176 162.234C175.641 162.927 175.6 163.452 176.053 163.81C176.247 163.963 176.492 163.973 176.79 163.841C177.081 163.716 177.393 163.523 177.726 163.261C178.061 163.013 178.41 162.771 178.776 162.534C179.141 162.297 179.541 162.167 179.976 162.143C180.413 162.133 180.833 162.288 181.237 162.608C181.795 163.048 182.08 163.614 182.092 164.307C182.098 165.007 181.856 165.675 181.364 166.311C180.974 166.816 180.514 167.175 179.986 167.388C179.459 167.615 178.915 167.678 178.356 167.577L178.597 165.976C179.221 166.128 179.748 165.927 180.176 165.372C180.371 165.12 180.478 164.863 180.497 164.602C180.524 164.348 180.433 164.138 180.223 163.972Z" fill="#528F49"/>
<path d="M173.214 173.047L174.509 171.634L171.805 169.095C171.573 168.876 171.355 168.771 171.152 168.778C170.957 168.793 170.758 168.896 170.555 169.087C170.353 169.292 170.116 169.558 169.846 169.883L168.753 168.857C169.504 167.809 170.203 167.208 170.849 167.052C171.503 166.903 172.198 167.174 172.933 167.865L175.637 170.404L176.598 169.356L177.769 170.457L176.808 171.505L178.024 172.647L177.257 174.216L175.68 172.735L174.385 174.147L173.214 173.047Z" fill="#528F49"/>
<path d="M167.572 180.572L166.328 181.685L161.251 175.861L162.494 174.748L163.225 175.587C163.118 174.508 163.502 173.576 164.377 172.793C165.168 172.085 166.101 171.776 167.176 171.864C168.257 171.961 169.171 172.436 169.915 173.29C170.667 174.152 171.019 175.129 170.974 176.221C170.928 177.313 170.51 178.212 169.719 178.92C168.844 179.703 167.888 179.978 166.851 179.745L167.572 180.572ZM166.986 173.528C166.336 173.487 165.749 173.701 165.227 174.168C164.705 174.635 164.424 175.198 164.383 175.857C164.349 176.523 164.566 177.124 165.033 177.66C165.5 178.196 166.059 178.484 166.709 178.524C167.366 178.572 167.955 178.363 168.477 177.895C168.999 177.428 169.277 176.861 169.311 176.195C169.352 175.536 169.139 174.939 168.672 174.403C168.204 173.868 167.642 173.576 166.986 173.528Z" fill="#528F49"/>
<path d="M163.161 185.931C163.204 185.641 163.341 185.409 163.572 185.236C163.803 185.063 164.065 184.995 164.36 185.031C164.652 185.082 164.883 185.224 165.053 185.457C165.223 185.69 165.287 185.952 165.243 186.242C165.206 186.54 165.068 186.779 164.829 186.959C164.59 187.138 164.325 187.202 164.032 187.151C163.746 187.109 163.518 186.971 163.348 186.738C163.178 186.505 163.116 186.236 163.161 185.931ZM159 177.558L163.556 183.799L162.221 184.801L157.665 178.561L159 177.558Z" fill="#528F49"/>
<path d="M156.096 189.204C155.347 189.676 154.593 189.816 153.836 189.624C153.078 189.432 152.441 188.913 151.926 188.07L149.451 184.022L150.863 183.132L153.249 187.035C153.55 187.527 153.912 187.823 154.334 187.922C154.757 188.02 155.195 187.927 155.648 187.642C156.145 187.328 156.449 186.918 156.561 186.409C156.678 185.909 156.54 185.338 156.148 184.697L153.988 181.163L155.4 180.273L159.43 186.866L158.018 187.756L157.502 186.912C157.489 187.858 157.02 188.622 156.096 189.204Z" fill="#528F49"/>
<path d="M144.76 195.052L143.254 195.771L140.015 188.756L141.521 188.037L141.987 189.047C142.187 187.981 142.817 187.195 143.877 186.689C144.834 186.231 145.816 186.196 146.823 186.582C147.834 186.978 148.577 187.691 149.053 188.72C149.532 189.758 149.596 190.795 149.246 191.83C148.896 192.865 148.242 193.611 147.284 194.068C146.225 194.575 145.23 194.57 144.3 194.056L144.76 195.052ZM146.174 188.126C145.562 187.904 144.939 187.945 144.307 188.247C143.675 188.549 143.247 189.01 143.023 189.631C142.803 190.261 142.842 190.899 143.14 191.544C143.438 192.19 143.894 192.623 144.506 192.844C145.123 193.074 145.748 193.038 146.38 192.736C147.012 192.434 147.438 191.968 147.658 191.338C147.882 190.718 147.845 190.085 147.547 189.439C147.249 188.794 146.791 188.356 146.174 188.126Z" fill="#528F49"/>
<path d="M135.755 198.746C134.749 199.085 133.77 199.001 132.816 198.496C131.863 197.991 131.21 197.194 130.858 196.106C130.51 195.027 130.57 193.991 131.039 192.996C131.511 192.012 132.25 191.35 133.256 191.012C134.369 190.637 135.358 190.767 136.223 191.4L135.881 190.341L137.463 189.809L140.789 200.102L139.207 200.634L137.919 196.649C137.59 197.673 136.868 198.372 135.755 198.746ZM135.863 192.548C135.281 192.254 134.658 192.219 133.994 192.443C133.33 192.666 132.85 193.072 132.553 193.661C132.259 194.26 132.222 194.897 132.44 195.574C132.659 196.25 133.059 196.735 133.641 197.028C134.226 197.331 134.851 197.371 135.515 197.148C136.179 196.925 136.658 196.514 136.951 195.915C137.248 195.326 137.287 194.693 137.069 194.017C136.85 193.341 136.448 192.851 135.863 192.548Z" fill="#528F49"/>
<path d="M127.927 202.274C128.08 202.024 128.298 201.866 128.578 201.798C128.858 201.73 129.127 201.771 129.383 201.921C129.632 202.083 129.789 202.305 129.854 202.586C129.919 202.867 129.875 203.132 129.721 203.381C129.569 203.641 129.348 203.805 129.058 203.876C128.768 203.946 128.498 203.9 128.249 203.738C128.002 203.585 127.846 203.369 127.782 203.088C127.717 202.807 127.765 202.535 127.927 202.274ZM127.389 192.944L129.128 200.472L127.506 200.865L125.767 193.337L127.389 192.944Z" fill="#528F49"/>
<path d="M122.993 193.938L124.966 205.045L123.326 205.353L121.353 194.246L122.993 193.938Z" fill="#528F49"/>
<path d="M118.131 204.035C118.31 203.803 118.542 203.668 118.828 203.63C119.114 203.592 119.377 203.661 119.617 203.836C119.848 204.024 119.982 204.26 120.018 204.547C120.053 204.833 119.982 205.092 119.803 205.324C119.626 205.566 119.389 205.706 119.093 205.746C118.797 205.786 118.533 205.712 118.302 205.525C118.073 205.348 117.94 205.116 117.904 204.83C117.868 204.543 117.944 204.279 118.131 204.035ZM118.551 194.703L119.511 202.369L117.857 202.591L116.897 194.924L118.551 194.703Z" fill="#528F49"/>
<path d="M110.159 201.65L112.071 201.52L111.846 197.818C111.827 197.5 111.741 197.273 111.588 197.139C111.436 197.015 111.221 196.952 110.942 196.95C110.654 196.96 110.299 196.989 109.879 197.038L109.788 195.542C111.053 195.301 111.975 195.347 112.552 195.68C113.13 196.022 113.45 196.698 113.511 197.705L113.736 201.407L115.155 201.311L115.252 202.915L113.834 203.012L113.935 204.677L112.3 205.284L112.169 203.125L110.257 203.254L110.159 201.65Z" fill="#528F49"/>
<path d="M101.933 203.239L100.157 203.198L103.343 195.295C104.14 193.314 105.423 192.395 107.191 192.539L107.148 194.099C106.624 194.056 106.198 194.16 105.872 194.41C105.546 194.65 105.272 195.035 105.052 195.566L104.97 195.719L108.036 203.378L106.213 203.336L104.066 197.676L101.933 203.239Z" fill="#528F49"/>
<path d="M87.543 193.556L89.039 197.859L91.1025 198.258L91.852 194.389L93.5969 194.726L91.5394 205.346L87.291 204.525C86.3402 204.341 85.6007 203.852 85.0726 203.058C84.5324 202.271 84.3543 201.403 84.5385 200.452C84.6698 199.774 84.9876 199.19 85.4918 198.7C85.984 198.218 86.5681 197.911 87.2442 197.78L85.6312 193.187L87.543 193.556ZM90.112 203.37L90.7998 199.82L88.2963 199.337C87.831 199.247 87.4032 199.342 87.0129 199.624C86.6226 199.905 86.3794 200.293 86.2834 200.789C86.1874 201.285 86.2679 201.736 86.525 202.142C86.782 202.549 87.1432 202.797 87.6085 202.887L90.112 203.37Z" fill="#528F49"/>
<path d="M81.4147 195.22C81.4733 194.623 81.3395 194.105 81.0132 193.666C80.6839 193.237 80.2148 192.926 79.6061 192.732C78.7617 192.464 78.0325 192.567 77.4185 193.042L76.3491 191.859C77.413 191.019 78.6567 190.825 80.0804 191.278C81.2782 191.658 82.1308 192.329 82.6382 193.291C83.1424 194.262 83.2182 195.307 82.8654 196.427C82.5188 197.528 81.8662 198.331 80.9075 198.837C79.9458 199.353 78.8954 199.43 77.7565 199.068C76.6765 198.725 75.912 198.066 75.463 197.091C75.0042 196.113 74.945 195.083 75.2854 194.002C75.338 193.835 75.4273 193.62 75.5532 193.358L81.4147 195.22ZM81.021 196.522L76.6911 195.146C76.6103 195.78 76.7184 196.311 77.0152 196.741C77.3021 197.167 77.7058 197.463 78.2262 197.628C78.8153 197.816 79.3572 197.81 79.8521 197.61C80.3469 197.411 80.7366 197.048 81.021 196.522Z" fill="#528F49"/>
<path d="M67.1548 194.949C66.1884 194.511 65.5244 193.774 65.1628 192.739C64.7971 191.714 64.8452 190.684 65.3073 189.649C65.7735 188.605 66.5087 187.881 67.5129 187.476C68.5171 187.072 69.5024 187.089 70.4689 187.527C71.5386 188.012 72.1832 188.779 72.4027 189.829L74.1102 186.005L75.6303 186.694L71.2199 196.571L69.6998 195.882L70.1534 194.866C69.224 195.406 68.2245 195.434 67.1548 194.949ZM71.3661 190.444C71.1329 189.83 70.6973 189.378 70.0592 189.089C69.4212 188.799 68.7965 188.771 68.1853 189.003C67.5698 189.244 67.1172 189.689 66.8273 190.338C66.5375 190.987 66.5092 191.619 66.7424 192.234C66.9715 192.858 67.405 193.315 68.043 193.604C68.6811 193.893 69.3079 193.917 69.9233 193.676C70.5346 193.444 70.9851 193.003 71.2749 192.354C71.5648 191.705 71.5952 191.069 71.3661 190.444Z" fill="#528F49"/>
<path d="M61.8665 182.94C62.8353 183.528 63.4585 184.364 63.736 185.449C64.0136 186.533 63.8598 187.566 63.2747 188.549C62.6896 189.532 61.8577 190.153 60.779 190.415C59.7003 190.676 58.6765 190.512 57.7077 189.924C56.7301 189.331 56.107 188.495 55.8382 187.416C55.5607 186.332 55.7144 185.298 56.2995 184.316C56.8846 183.333 57.7165 182.711 58.7952 182.45C59.8652 182.184 60.8889 182.347 61.8665 182.94ZM62.1469 185.822C61.9878 185.183 61.6176 184.687 61.0363 184.334C60.4551 183.982 59.8477 183.884 59.2142 184.042C58.5807 184.2 58.0847 184.58 57.7263 185.182C57.3678 185.783 57.2682 186.404 57.4273 187.043C57.5864 187.682 57.9566 188.177 58.5379 188.53C59.1192 188.883 59.7265 188.98 60.3601 188.823C60.9936 188.665 61.4895 188.285 61.848 187.683C62.2064 187.081 62.306 186.461 62.1469 185.822Z" fill="#528F49"/>
<path d="M51.2069 183.733C50.3038 184.255 49.3854 184.168 48.4517 183.473L49.5168 182.012C50.0048 182.427 50.542 182.634 51.1284 182.634C51.7087 182.642 52.2325 182.326 52.6998 181.685L54.9937 178.538L56.3322 179.535L51.7808 185.779L50.4423 184.782L51.2069 183.733Z" fill="#528F49"/>
<path d="M44.2146 177.59L45.6614 178.847L48.0609 176.019C48.2676 175.775 48.3631 175.551 48.3475 175.347C48.3253 175.15 48.2158 174.952 48.0191 174.754C47.808 174.557 47.5363 174.328 47.204 174.067L48.1738 172.924C49.2383 173.644 49.8606 174.328 50.0407 174.975C50.2142 175.631 49.9743 176.343 49.3211 177.113L46.9215 179.941L47.995 180.873L46.9552 182.099L45.8818 181.166L44.802 182.439L43.2219 181.722L44.6216 180.072L43.1748 178.816L44.2146 177.59Z" fill="#528F49"/>
<path d="M38.8993 176.708C39.1888 176.705 39.4362 176.805 39.6412 177.008C39.8462 177.211 39.9541 177.462 39.9648 177.763C39.9609 178.063 39.8589 178.317 39.6585 178.525C39.4581 178.732 39.2132 178.838 38.9236 178.841C38.6269 178.852 38.3723 178.752 38.16 178.542C37.9476 178.332 37.8433 178.077 37.8471 177.776C37.8438 177.483 37.9423 177.232 38.1427 177.025C38.343 176.817 38.5952 176.712 38.8993 176.708ZM46.4061 171.202L41.0394 176.761L39.8531 175.587L45.2198 170.028L46.4061 171.202Z" fill="#528F49"/>
<path d="M34.6314 170.177C34.055 169.504 33.8019 168.773 33.8721 167.984C33.9423 167.196 34.3487 166.474 35.0912 165.821L38.6533 162.688L39.7391 163.955L36.3047 166.976C35.8715 167.357 35.6394 167.767 35.6085 168.206C35.5775 168.645 35.7363 169.068 36.0848 169.475C36.4668 169.921 36.9144 170.158 37.4275 170.187C37.9328 170.223 38.4678 169.992 39.0324 169.495L42.142 166.76L43.2278 168.027L37.4264 173.131L36.3406 171.863L37.0832 171.21C36.1591 171.351 35.3419 171.006 34.6314 170.177Z" fill="#528F49"/>
<path d="M27.202 159.783L26.2883 158.424L32.3495 154.229C33.3152 153.56 34.2719 153.368 35.2197 153.652C36.1675 153.935 36.9488 154.534 37.5637 155.449C38.5579 156.929 38.7264 158.296 38.0692 159.553L36.5814 158.835C37.0095 158.05 36.9161 157.2 36.3012 156.286C35.8989 155.687 35.429 155.33 34.8914 155.213C34.3566 155.082 33.8139 155.207 33.2632 155.588L32.4881 156.125C33.5757 156.136 34.4442 156.625 35.0936 157.591C35.7027 158.497 35.8994 159.483 35.6836 160.546C35.4593 161.616 34.8939 162.465 33.9875 163.092C33.0811 163.719 32.1004 163.941 31.0456 163.756C29.9822 163.578 29.146 163.035 28.5368 162.129C27.8874 161.163 27.7559 160.164 28.1424 159.132L27.202 159.783ZM34.0918 160.145C34.2086 159.488 34.0716 158.868 33.6809 158.287C33.2901 157.706 32.7748 157.354 32.1349 157.233C31.4894 157.104 30.8828 157.236 30.3152 157.628C29.7477 158.021 29.4054 158.546 29.2886 159.203C29.166 159.852 29.3001 160.467 29.6909 161.048C30.0817 161.63 30.5999 161.985 31.2454 162.115C31.8852 162.236 32.4889 162.1 33.0565 161.707C33.6241 161.314 33.9692 160.793 34.0918 160.145Z" fill="#528F49"/>
<defs>
<filter id="filter0_f_4403_6224" x="23.2093" y="74.7454" width="167.1" height="69.9251" filterUnits="userSpaceOnUse" color-interpolation-filters="sRGB">
<feFlood flood-opacity="0" result="BackgroundImageFix"/>
<feBlend mode="normal" in="SourceGraphic" in2="BackgroundImageFix" result="shape"/>
<feGaussianBlur stdDeviation="3.9847" result="effect1_foregroundBlur_4403_6224"/>
</filter>
<filter id="filter1_d_4403_6224" x="48.8359" y="93.8262" width="118.01" height="34.664" filterUnits="userSpaceOnUse" color-interpolation-filters="sRGB">
<feFlood flood-opacity="0" result="BackgroundImageFix"/>
<feColorMatrix in="SourceAlpha" type="matrix" values="0 0 0 0 0 0 0 0 0 0 0 0 0 0 0 0 0 0 127 0" result="hardAlpha"/>
<feOffset dy="1.02831"/>
<feGaussianBlur stdDeviation="0.514155"/>
<feComposite in2="hardAlpha" operator="out"/>
<feColorMatrix type="matrix" values="0 0 0 0 0 0 0 0 0 0 0 0 0 0 0 0 0 0 0.25 0"/>
<feBlend mode="normal" in2="BackgroundImageFix" result="effect1_dropShadow_4403_6224"/>
<feBlend mode="normal" in="SourceGraphic" in2="effect1_dropShadow_4403_6224" result="shape"/>
</filter>
</defs>
</svg>
