<svg width="215" height="216" viewBox="0 0 215 216" fill="none" xmlns="http://www.w3.org/2000/svg">
<circle cx="107.177" cy="108.038" r="107.073" fill="#528F49"/>
<path d="M103.096 103.598V106.286C103.096 111.265 101.503 115.297 98.3169 118.384C95.1307 121.47 91.0153 123.013 85.9707 123.013C80.5941 123.013 76.1302 121.271 72.579 117.786C69.061 114.268 67.302 109.987 67.302 104.942C67.302 99.8642 69.0444 95.5663 72.5292 92.0483C76.0472 88.5303 80.395 86.7713 85.5724 86.7713C88.8249 86.7713 91.7953 87.518 94.4836 89.0115C97.1719 90.4718 99.2627 92.43 100.756 94.8859L94.8818 98.2712C94.0521 96.8441 92.7909 95.6825 91.0983 94.7864C89.4389 93.8903 87.5803 93.4422 85.5226 93.4422C82.2037 93.4422 79.4657 94.5375 77.3084 96.7279C75.1843 98.8852 74.1223 101.623 74.1223 104.942C74.1223 108.228 75.2009 110.949 77.3582 113.107C79.5487 115.231 82.4361 116.293 86.0204 116.293C88.6755 116.293 90.866 115.712 92.5918 114.55C94.3508 113.355 95.5456 111.729 96.1762 109.672H85.6222V103.598H103.096ZM127.099 122.316L120.08 110.219H114.853V122.316H107.983V87.4683H121.922C125.141 87.4683 127.879 88.5967 130.136 90.8535C132.393 93.1103 133.521 95.8318 133.521 99.0179C133.521 101.175 132.907 103.183 131.679 105.042C130.451 106.867 128.825 108.244 126.801 109.174L134.517 122.316H127.099ZM114.853 93.8903V104.195H121.922C123.216 104.195 124.328 103.698 125.257 102.702C126.187 101.673 126.651 100.445 126.651 99.0179C126.651 97.5908 126.187 96.3794 125.257 95.3838C124.328 94.3881 123.216 93.8903 121.922 93.8903H114.853ZM138.562 87.4683H145.432V122.316H138.562V87.4683Z" fill="white"/>
</svg>
