<svg width="215" height="216" viewBox="0 0 215 216" fill="none" xmlns="http://www.w3.org/2000/svg">
<circle cx="107.12" cy="108.038" r="107.073" fill="#666666"/>
<circle cx="107.119" cy="108.038" r="77.5089" fill="#D9D9D9"/>
<path d="M67.5758 150.569C64.5457 150.569 61.9964 149.899 59.9277 148.559C57.8591 147.189 56.4024 145.339 55.5574 143.008L60.7144 139.993C61.909 143.11 64.2544 144.669 67.7506 144.669C69.4405 144.669 70.6787 144.363 71.4654 143.751C72.252 143.139 72.6454 142.367 72.6454 141.435C72.6454 140.357 72.1646 139.527 71.2032 138.944C70.2417 138.332 68.5227 137.676 66.0462 136.977C64.6768 136.569 63.5114 136.161 62.5499 135.753C61.6176 135.346 60.6707 134.807 59.7092 134.136C58.7769 133.437 58.0631 132.563 57.5678 131.514C57.0725 130.465 56.8248 129.242 56.8248 127.843C56.8248 125.075 57.8009 122.876 59.7529 121.244C61.7341 119.583 64.1087 118.753 66.8766 118.753C69.3531 118.753 71.5237 119.365 73.3883 120.588C75.2821 121.783 76.7535 123.458 77.8023 125.614L72.7328 128.542C71.5091 125.92 69.557 124.609 66.8766 124.609C65.6237 124.609 64.6331 124.901 63.9047 125.483C63.2055 126.037 62.8559 126.765 62.8559 127.668C62.8559 128.63 63.2492 129.417 64.0358 130.028C64.8516 130.611 66.3958 131.252 68.6684 131.951C69.6007 132.243 70.3 132.476 70.7661 132.651C71.2614 132.796 71.917 133.044 72.7328 133.394C73.5777 133.714 74.2187 134.02 74.6557 134.311C75.1219 134.603 75.6463 134.996 76.229 135.491C76.8117 135.987 77.2488 136.496 77.5401 137.021C77.8606 137.545 78.1228 138.186 78.3268 138.944C78.5599 139.672 78.6764 140.473 78.6764 141.348C78.6764 144.174 77.6421 146.417 75.5735 148.078C73.534 149.739 70.8681 150.569 67.5758 150.569ZM101.807 149.957L99.9715 144.45H87.7783L85.9427 149.957H79.431L90.1382 119.365H97.6115L108.362 149.957H101.807ZM89.7012 138.813H98.0922L93.8967 126.314L89.7012 138.813ZM121.095 150.569C118.065 150.569 115.516 149.899 113.447 148.559C111.378 147.189 109.922 145.339 109.077 143.008L114.234 139.993C115.428 143.11 117.774 144.669 121.27 144.669C122.96 144.669 124.198 144.363 124.985 143.751C125.771 143.139 126.165 142.367 126.165 141.435C126.165 140.357 125.684 139.527 124.722 138.944C123.761 138.332 122.042 137.676 119.566 136.977C118.196 136.569 117.031 136.161 116.069 135.753C115.137 135.346 114.19 134.807 113.229 134.136C112.296 133.437 111.582 132.563 111.087 131.514C110.592 130.465 110.344 129.242 110.344 127.843C110.344 125.075 111.32 122.876 113.272 121.244C115.253 119.583 117.628 118.753 120.396 118.753C122.872 118.753 125.043 119.365 126.908 120.588C128.801 121.783 130.273 123.458 131.322 125.614L126.252 128.542C125.028 125.92 123.076 124.609 120.396 124.609C119.143 124.609 118.152 124.901 117.424 125.483C116.725 126.037 116.375 126.765 116.375 127.668C116.375 128.63 116.769 129.417 117.555 130.028C118.371 130.611 119.915 131.252 122.188 131.951C123.12 132.243 123.819 132.476 124.285 132.651C124.781 132.796 125.436 133.044 126.252 133.394C127.097 133.714 127.738 134.02 128.175 134.311C128.641 134.603 129.166 134.996 129.748 135.491C130.331 135.987 130.768 136.496 131.059 137.021C131.38 137.545 131.642 138.186 131.846 138.944C132.079 139.672 132.196 140.473 132.196 141.348C132.196 144.174 131.161 146.417 129.093 148.078C127.053 149.739 124.387 150.569 121.095 150.569ZM154.402 134.093C157.083 135.637 158.423 137.968 158.423 141.085C158.423 143.678 157.505 145.805 155.67 147.466C153.834 149.127 151.576 149.957 148.896 149.957H135.916V119.365H147.978C150.6 119.365 152.8 120.181 154.577 121.812C156.384 123.415 157.287 125.469 157.287 127.974C157.287 130.509 156.325 132.549 154.402 134.093ZM147.978 125.003H141.947V131.733H147.978C148.91 131.733 149.682 131.412 150.294 130.771C150.935 130.13 151.256 129.329 151.256 128.368C151.256 127.406 150.95 126.605 150.338 125.964C149.726 125.323 148.94 125.003 147.978 125.003ZM148.896 144.319C149.916 144.319 150.76 143.984 151.431 143.314C152.101 142.615 152.436 141.741 152.436 140.692C152.436 139.672 152.101 138.827 151.431 138.157C150.76 137.458 149.916 137.108 148.896 137.108H141.947V144.319H148.896Z" fill="black"/>
<rect x="89.7666" y="53.6289" width="12.8539" height="57.3283" fill="#528F49"/>
<rect x="71" y="73.4258" width="12.8539" height="37.5333" fill="#528F49"/>
<rect x="52.2334" y="95.5332" width="12.8539" height="15.4246" fill="#528F49"/>
<path fill-rule="evenodd" clip-rule="evenodd" d="M158.749 111.109H109.562C108.994 111.109 108.533 110.649 108.533 110.081V52.1245C108.533 50.8904 110.31 50.7031 110.567 51.9101L114.348 69.6469C114.536 70.5261 115.682 70.7585 116.197 70.0217L129.114 51.5473C129.747 50.6421 131.167 51.2352 130.968 52.3216L126.775 75.2364C126.616 76.1059 127.556 76.7576 128.314 76.3041L147.238 64.9932C148.175 64.4331 149.224 65.5262 148.626 66.4393L135.983 85.7401C135.51 86.4617 136.082 87.4096 136.941 87.3272L158.75 85.2331C159.824 85.13 160.312 86.5392 159.404 87.122L140.448 99.2936C139.733 99.7526 139.852 100.831 140.649 101.124L161.529 108.793C162.539 109.163 162.374 110.639 161.307 110.778L158.749 111.109Z" fill="#528F49"/>
<path d="M26.4759 77.7225C26.0261 78.9355 25.3793 79.8566 24.5357 80.4857C23.6804 81.1106 22.7234 81.4191 21.6649 81.4113L21.2233 78.8991C22.6487 78.8837 23.6209 78.1762 24.14 76.7766C24.3909 76.1001 24.4522 75.559 24.3241 75.1532C24.1959 74.7475 23.9453 74.4754 23.572 74.337C23.1405 74.1769 22.7367 74.2461 22.3607 74.5445C21.973 74.8385 21.4553 75.4294 20.8077 76.317C20.4412 76.8046 20.1048 77.2106 19.7988 77.5349C19.4971 77.8476 19.1407 78.1466 18.7297 78.4321C18.3114 78.7015 17.8555 78.8575 17.3621 78.9C16.8686 78.9426 16.342 78.8601 15.7822 78.6524C14.6741 78.2415 13.9384 77.5242 13.5751 76.5005C13.2044 75.4608 13.2245 74.3869 13.6354 73.2789C14.0031 72.2875 14.5703 71.5094 15.337 70.9446C16.0964 70.3638 16.9855 70.0235 18.0043 69.9237L18.4238 72.3879C17.1924 72.4885 16.3778 73.0753 15.9798 74.1483C15.7938 74.6499 15.7634 75.0897 15.8885 75.4678C16.0063 75.8299 16.246 76.078 16.6076 76.2121C16.9925 76.3549 17.3658 76.3142 17.7275 76.0901C18.0819 75.85 18.5678 75.327 19.1851 74.5211C19.4401 74.1911 19.6373 73.9458 19.7764 73.7851C19.9083 73.6085 20.1048 73.3828 20.3658 73.1081C20.6196 72.8175 20.8372 72.6063 21.0187 72.4746C21.2046 72.3312 21.4399 72.1797 21.7247 72.0199C22.0095 71.8602 22.2785 71.7609 22.5317 71.7222C22.7892 71.6717 23.0847 71.6619 23.4183 71.6927C23.7445 71.7076 24.0825 71.7799 24.4324 71.9096C25.5638 72.3292 26.3083 73.0763 26.666 74.151C27.0281 75.214 26.9647 76.4045 26.4759 77.7225Z" fill="white"/>
<path d="M31.3404 67.0058C30.648 68.286 29.7187 69.1411 28.5527 69.5712C27.3867 70.0012 26.1964 69.8878 24.9818 69.2309L17.2513 65.0497L18.4675 62.8011L26.0175 66.8846C26.6193 67.2101 27.187 67.298 27.7206 67.1482C28.2601 66.9874 28.7281 66.5405 29.1246 65.8074C29.5212 65.0742 29.6361 64.4434 29.4694 63.9148C29.3086 63.3753 28.9274 62.9428 28.3255 62.6173L20.7756 58.5338L22.0007 56.2688L29.7311 60.45C30.9457 61.1069 31.6921 62.0409 31.9704 63.2522C32.2487 64.4634 32.0387 65.7146 31.3404 67.0058Z" fill="white"/>
<path d="M37.9259 56.6624C37.1569 57.7028 36.2799 58.4081 35.2947 58.7783C34.2995 59.1411 33.2946 59.1718 32.2798 58.8704L32.5531 56.3344C33.9267 56.7154 35.0571 56.3056 35.9444 55.1051C36.3732 54.5249 36.5824 54.0221 36.572 53.5967C36.5615 53.1713 36.3962 52.8403 36.0761 52.6037C35.7059 52.3302 35.2988 52.2845 34.8547 52.4668C34.4007 52.6416 33.7393 53.0655 32.8708 53.7384C32.3832 54.1051 31.9474 54.4017 31.5633 54.6284C31.1867 54.845 30.7613 55.0333 30.2872 55.1934C29.8105 55.3361 29.3292 55.3594 28.8434 55.2633C28.3576 55.1672 27.8745 54.9417 27.3943 54.5868C26.4439 53.8843 25.9363 52.991 25.8715 51.9066C25.804 50.8049 26.1215 49.7789 26.8239 48.8285C27.4524 47.9781 28.2133 47.3881 29.1067 47.0584C29.9975 46.7112 30.9461 46.6312 31.9526 46.8182L31.6715 49.302C30.4605 49.0567 29.515 49.3942 28.8347 50.3146C28.5168 50.7448 28.3655 51.1589 28.3807 51.5569C28.3933 51.9374 28.5547 52.2423 28.8648 52.4715C29.195 52.7155 29.5649 52.7801 29.9746 52.6653C30.3817 52.533 30.9937 52.1655 31.8105 51.5626C32.1471 51.3164 32.4046 51.1355 32.583 51.0198C32.7587 50.8867 33.0101 50.7244 33.3371 50.533C33.6616 50.3242 33.9293 50.1818 34.1403 50.1057C34.3586 50.0195 34.6267 49.9393 34.9447 49.8649C35.2626 49.7905 35.5486 49.7698 35.8026 49.8029C36.064 49.8259 36.3507 49.8986 36.6625 50.0208C36.9718 50.1256 37.2765 50.2889 37.5766 50.5107C38.547 51.2279 39.0548 52.1524 39.1001 53.2841C39.1528 54.4058 38.7614 55.5319 37.9259 56.6624Z" fill="white"/>
<path d="M38.5728 35.7613L40.3506 37.4662L37.9096 40.0116L45.5592 47.3475L43.7769 49.2061L36.1272 41.8701L33.6991 44.402L31.9214 42.6972L38.5728 35.7613Z" fill="white"/>
<path d="M55.9817 38.2988L53.9081 36.9415L49.8257 40.1722L50.6702 42.5022L48.49 44.2276L43.9691 31.148L46.4712 29.1679L58.1765 36.5619L55.9817 38.2988ZM48.9757 37.7751L51.7851 35.5519L47.0687 32.4787L48.9757 37.7751Z" fill="white"/>
<path d="M52.8224 24.6927L55.0018 23.3211L61.9593 34.3757L59.78 35.7474L52.8224 24.6927Z" fill="white"/>
<path d="M65.4948 17.7164L67.8096 16.5885L73.5309 28.3307L71.7696 29.1889L63.2391 24.4613L66.7372 31.6408L64.4223 32.7688L58.701 21.0266L60.4624 20.1684L68.9847 24.8791L65.4948 17.7164Z" fill="white"/>
<path d="M84.2657 24.754L82.8183 22.7423L77.8477 24.2905L77.7986 26.7683L75.1441 27.5951L75.6246 13.7646L78.671 12.8157L86.938 23.9216L84.2657 24.754ZM77.9158 21.7481L81.3364 20.6827L78.039 16.1201L77.9158 21.7481Z" fill="white"/>
<path d="M95.4063 15.7081C96.6403 16.179 97.3621 17.0717 97.5717 18.3861C97.746 19.4795 97.5021 20.438 96.8398 21.2616C96.1775 22.0852 95.2812 22.5871 94.151 22.7673L88.6782 23.6399L86.6215 10.741L91.7074 9.93008C92.813 9.7538 93.7954 9.94988 94.6544 10.5183C95.5238 11.0726 96.0427 11.8779 96.2112 12.9344C96.3816 14.0032 96.1133 14.9277 95.4063 15.7081ZM92.0864 12.3072L89.5435 12.7126L89.996 15.5504L92.5389 15.1449C92.932 15.0823 93.236 14.8952 93.4509 14.5838C93.6781 14.2705 93.7593 13.9111 93.6947 13.5057C93.6301 13.1003 93.4472 12.783 93.1461 12.5539C92.8451 12.3248 92.4918 12.2425 92.0864 12.3072ZM93.772 20.3902C94.202 20.3217 94.5357 20.1236 94.7732 19.796C95.0088 19.4561 95.0913 19.0651 95.0208 18.6228C94.9522 18.1928 94.7541 17.8591 94.4265 17.6216C94.097 17.3718 93.7172 17.2812 93.2872 17.3498L90.3573 17.8169L90.8421 20.8574L93.772 20.3902Z" fill="white"/>
<path d="M99.59 9.04766L102.161 8.90002L102.91 21.9404L100.339 22.088L99.59 9.04766Z" fill="white"/>
<path d="M108.507 19.4276L113.487 19.5806L113.411 22.0425L105.857 21.8105L106.258 8.75476L108.832 8.83383L108.507 19.4276Z" fill="white"/>
<path d="M116.972 9.35099L119.529 9.65615L117.981 22.626L115.424 22.3208L116.972 9.35099Z" fill="white"/>
<path d="M132.105 12.0472L131.586 14.4548L128.139 13.7108L125.902 24.071L123.385 23.5278L125.621 13.1676L122.192 12.4275L122.712 10.0198L132.105 12.0472Z" fill="white"/>
<path d="M145.319 16.5458L138.414 22.5338L136.694 27.3289L134.288 26.4659L136.008 21.6708L134.5 12.6653L137.24 13.648L138.07 19.7343L142.579 15.563L145.319 16.5458Z" fill="white"/>
<path d="M154.309 36.314L154.872 33.9005L150.436 31.1752L148.538 32.7682L146.169 31.3128L156.902 22.5767L159.621 24.2471L156.694 37.7792L154.309 36.314ZM152.396 29.5541L155.449 31.4295L156.716 25.9447L152.396 29.5541Z" fill="white"/>
<path d="M162.622 43.0744C161.129 41.7961 160.32 40.2441 160.196 38.4186C160.073 36.5931 160.634 34.9527 161.88 33.4975C163.134 32.0328 164.668 31.2258 166.483 31.0763C168.306 30.9175 169.964 31.4772 171.457 32.7555C172.354 33.5241 172.999 34.4446 173.391 35.5171C173.8 36.5882 173.91 37.6649 173.721 38.7471L171.197 38.281C171.331 37.6265 171.277 36.9822 171.034 36.3482C170.798 35.7047 170.397 35.1403 169.83 34.6548C168.867 33.8296 167.828 33.4645 166.715 33.5596C165.611 33.6627 164.647 34.1962 163.822 35.1601C163.004 36.1145 162.63 37.1449 162.698 38.2513C162.775 39.3657 163.296 40.3356 164.26 41.1608C164.827 41.6463 165.442 41.9603 166.106 42.103C166.788 42.2443 167.433 42.1987 168.041 41.9663L168.891 44.3885C167.85 44.7426 166.77 44.8086 165.65 44.5866C164.538 44.3551 163.529 43.8511 162.622 43.0744Z" fill="white"/>
<path d="M172.379 53.0588C171.114 51.5546 170.569 49.8918 170.744 48.0704C170.919 46.2491 171.739 44.7219 173.205 43.4889C174.681 42.2478 176.326 41.7012 178.141 41.8492C179.966 41.9891 181.51 42.8111 182.775 44.3154C183.536 45.2199 184.022 46.2331 184.234 47.355C184.464 48.4785 184.397 49.5587 184.034 50.5956L181.619 49.7249C181.859 49.1011 181.91 48.4565 181.773 47.7914C181.646 47.1182 181.342 46.496 180.862 45.9248C180.045 44.9537 179.08 44.4244 177.966 44.3371C176.86 44.2592 175.822 44.6287 174.851 45.4453C173.889 46.254 173.352 47.2097 173.239 48.3124C173.134 49.4247 173.49 50.4663 174.307 51.4374C174.787 52.0087 175.343 52.4187 175.975 52.6675C176.625 52.9178 177.268 52.9779 177.906 52.8476L178.35 55.3757C177.266 55.5558 176.19 55.4452 175.121 55.0438C174.062 54.6345 173.147 53.9728 172.379 53.0588Z" fill="white"/>
<path d="M184.487 67.6432C182.694 67.1636 181.32 66.1075 180.366 64.4749C179.412 62.8423 179.167 61.1273 179.629 59.3298C180.109 57.5368 181.17 56.1602 182.813 55.2C184.457 54.2398 186.172 53.9941 187.959 54.4629C189.762 54.9362 191.141 55.9891 192.095 57.6217C193.049 59.2543 193.289 60.9725 192.816 62.7763C192.354 64.5737 191.301 65.9526 189.657 66.9128C188.014 67.873 186.29 68.1164 184.487 67.6432ZM182.057 60.0077C181.777 61.1075 181.939 62.1729 182.541 63.2041C183.144 64.2352 183.993 64.899 185.088 65.1955C186.194 65.4857 187.284 65.317 188.358 64.6894C189.432 64.0619 190.114 63.195 190.405 62.0889C190.695 60.9829 190.539 59.9143 189.936 58.8832C189.334 57.852 188.479 57.1914 187.373 56.9011C186.267 56.6109 185.177 56.7796 184.103 57.4072C183.029 58.0348 182.347 58.9016 182.057 60.0077Z" fill="white"/>
<path d="M186.369 76.9703C185.848 75.6112 185.804 74.3491 186.237 73.1841C186.67 72.0191 187.531 71.1896 188.82 70.6954L197.027 67.5505L197.942 69.9376L189.927 73.0091C189.288 73.254 188.852 73.6276 188.618 74.1302C188.389 74.6443 188.423 75.2906 188.721 76.0689C189.02 76.8471 189.424 77.3451 189.933 77.5628C190.447 77.792 191.024 77.7843 191.663 77.5394L199.678 74.4679L200.599 76.8725L192.393 80.0174C191.103 80.5115 189.908 80.4699 188.808 79.8925C187.707 79.315 186.894 78.341 186.369 76.9703Z" fill="white"/>
<path d="M203.611 88.8669L204.162 91.3823L191.403 94.1789L190.984 92.2651L197.587 85.087L189.785 86.7969L189.234 84.2816L201.993 81.485L202.412 83.3988L195.828 90.5729L203.611 88.8669Z" fill="white"/>
<path d="M205.448 104.683L202.992 104.876L202.717 101.36L192.15 102.188L191.949 99.6212L202.515 98.7924L202.241 95.2951L204.696 95.1025L205.448 104.683Z" fill="white"/>
<path d="M205.384 107.841L205.344 110.416L192.284 110.213L192.324 107.639L205.384 107.841Z" fill="white"/>
<path d="M204.314 122.267L203.996 124.823L191.034 123.209L191.276 121.265L199.893 116.696L191.968 115.71L192.286 113.154L205.248 114.768L205.006 116.712L196.408 121.283L204.314 122.267Z" fill="white"/>
<path d="M193.613 140.369L192.647 140.083C190.858 139.553 189.578 138.551 188.808 137.077C188.038 135.604 187.921 133.96 188.458 132.147C189.031 130.215 190.132 128.796 191.762 127.891C193.401 127.001 195.127 126.825 196.94 127.362C198.765 127.902 200.124 128.986 201.018 130.613C201.907 132.252 202.077 134.002 201.526 135.862C201.179 137.031 200.595 138.019 199.772 138.826C198.961 139.637 198.035 140.18 196.993 140.455L196.402 137.984C197.003 137.838 197.555 137.508 198.057 136.995C198.556 136.494 198.914 135.874 199.133 135.134C199.487 133.942 199.385 132.841 198.827 131.832C198.278 130.839 197.407 130.166 196.214 129.813C195.033 129.463 193.94 129.561 192.935 130.107C191.939 130.668 191.25 131.593 190.868 132.881C190.586 133.835 190.561 134.684 190.795 135.428C191.037 136.187 191.494 136.79 192.167 137.235L193.29 133.442L195.473 134.089L193.613 140.369Z" fill="white"/>
<path d="M181.358 149.023C181.983 147.889 182.758 147.074 183.686 146.576C184.624 146.085 185.616 145.921 186.662 146.085L186.727 148.635C185.315 148.44 184.249 148.996 183.529 150.303C183.181 150.935 183.04 151.461 183.107 151.882C183.174 152.302 183.382 152.608 183.73 152.8C184.134 153.022 184.543 153.013 184.959 152.774C185.386 152.54 185.985 152.032 186.757 151.25C187.191 150.822 187.584 150.47 187.935 150.195C188.279 149.93 188.676 149.687 189.124 149.465C189.578 149.261 190.052 149.174 190.546 149.204C191.041 149.235 191.549 149.395 192.072 149.683C193.107 150.253 193.729 151.071 193.937 152.137C194.15 153.22 193.972 154.279 193.402 155.314C192.892 156.241 192.216 156.926 191.374 157.372C190.537 157.834 189.607 158.039 188.585 157.987L188.534 155.488C189.767 155.571 190.659 155.111 191.211 154.108C191.469 153.64 191.564 153.209 191.497 152.817C191.434 152.441 191.233 152.16 190.895 151.974C190.536 151.776 190.161 151.761 189.77 151.93C189.384 152.115 188.826 152.56 188.096 153.266C187.795 153.555 187.564 153.768 187.403 153.907C187.246 154.062 187.019 154.256 186.72 154.489C186.426 154.739 186.179 154.916 185.98 155.019C185.775 155.134 185.52 155.249 185.215 155.365C184.91 155.481 184.629 155.539 184.373 155.54C184.111 155.552 183.817 155.518 183.492 155.438C183.171 155.375 182.848 155.254 182.521 155.074C181.464 154.492 180.838 153.643 180.643 152.527C180.442 151.422 180.68 150.254 181.358 149.023Z" fill="white"/>
<path d="M183.49 169.824L181.502 168.37L183.583 165.523L175.028 159.267L176.548 157.188L185.103 163.444L187.174 160.613L189.162 162.067L183.49 169.824Z" fill="white"/>
<path d="M165.898 169.617L168.133 170.687L171.751 166.943L170.605 164.746L172.537 162.747L178.753 175.111L176.536 177.405L163.953 171.63L165.898 169.617ZM172.912 169.206L170.422 171.783L175.504 174.203L172.912 169.206Z" fill="white"/>
<path d="M164.494 187.706L162.446 189.267L154.529 178.877L156.088 177.69L165.381 180.649L160.541 174.297L162.589 172.736L170.505 183.126L168.947 184.313L159.665 181.368L164.494 187.706Z" fill="white"/>
<path d="M153.726 194.451C152.149 195.301 150.537 195.457 148.89 194.918C147.231 194.384 145.965 193.308 145.091 191.687C144.217 190.067 144.013 188.417 144.479 186.739C144.934 185.066 145.949 183.804 147.526 182.954L152.092 180.492L158.292 191.988L153.726 194.451ZM148.695 185.122C147.699 185.659 147.066 186.425 146.796 187.418C146.532 188.423 146.686 189.456 147.259 190.518C147.832 191.58 148.607 192.271 149.586 192.592C150.57 192.923 151.56 192.82 152.557 192.283L154.856 191.043L150.994 183.882L148.695 185.122Z" fill="white"/>
<path d="M131.893 189.612L133.414 191.569L138.324 189.839L138.282 187.361L140.904 186.438L140.932 200.276L137.923 201.337L129.253 190.542L131.893 189.612ZM138.349 192.382L134.97 193.573L138.433 198.011L138.349 192.382Z" fill="white"/>
<path d="M120.495 192.271L123.949 196.215L125.872 195.838L124.999 191.388L127.526 190.893L130.039 203.711L124.912 204.716C123.728 204.948 122.64 204.73 121.647 204.063C120.654 203.396 120.043 202.476 119.813 201.304C119.657 200.511 119.738 199.728 120.056 198.956C120.376 198.196 120.875 197.572 121.553 197.084L117.767 192.806L120.495 192.271ZM127.049 201.844L126.306 198.053L123.706 198.563C123.23 198.657 122.857 198.92 122.587 199.353C122.319 199.799 122.237 200.284 122.34 200.809C122.443 201.334 122.701 201.746 123.115 202.045C123.528 202.344 123.973 202.447 124.449 202.354L127.049 201.844Z" fill="white"/>
<path d="M111.15 206.326C109.36 206.404 107.841 205.841 106.594 204.637C105.334 203.435 104.664 201.913 104.584 200.074C104.504 198.235 105.039 196.661 106.19 195.354C107.329 194.047 108.793 193.354 110.583 193.276L115.765 193.051L116.332 206.101L111.15 206.326ZM110.689 195.737C109.559 195.786 108.655 196.199 107.979 196.976C107.304 197.764 106.992 198.762 107.044 199.967C107.097 201.173 107.493 202.133 108.234 202.848C108.976 203.575 109.912 203.914 111.043 203.865L113.653 203.752L113.299 195.624L110.689 195.737Z" fill="white"/>
<path d="M87.8424 198.294C86.8229 197.454 86.4233 196.378 86.6437 195.065C86.8269 193.973 87.3637 193.143 88.254 192.573C89.1443 192.004 90.1538 191.814 91.2824 192.003L96.7479 192.92L94.5857 205.802L89.5066 204.95C88.4025 204.764 87.5339 204.265 86.9008 203.453C86.2535 202.65 86.0183 201.721 86.1954 200.666C86.3746 199.599 86.9236 198.808 87.8424 198.294ZM89.9051 202.576L92.4446 203.002L92.9203 200.168L90.3808 199.742C89.9882 199.676 89.6404 199.756 89.3375 199.983C89.0223 200.207 88.8307 200.522 88.7628 200.927C88.6948 201.332 88.767 201.691 88.9793 202.004C89.1916 202.317 89.5002 202.508 89.9051 202.576ZM90.884 194.377C90.4546 194.305 90.0751 194.386 89.7456 194.621C89.414 194.868 89.2111 195.212 89.137 195.654C89.0649 196.084 89.1463 196.463 89.3811 196.793C89.6138 197.134 89.9449 197.341 90.3743 197.413L93.3003 197.905L93.8099 194.868L90.884 194.377Z" fill="white"/>
<path d="M74.2245 189.009C75.8899 188.19 77.619 188.081 79.4118 188.682C81.2047 189.283 82.5186 190.412 83.3537 192.07C84.173 193.735 84.2802 195.47 83.6753 197.275C83.0703 199.079 81.9411 200.393 80.2874 201.216C78.6181 202.048 76.887 202.163 75.0942 201.562C73.3014 200.961 71.9894 199.825 71.1583 198.156C70.3232 196.499 70.2081 194.767 70.8131 192.963C71.418 191.158 72.5552 189.84 74.2245 189.009ZM81.0801 193.157C80.5664 192.145 79.7435 191.45 78.6112 191.07C77.4789 190.691 76.4029 190.75 75.3832 191.248C74.3595 191.757 73.65 192.602 73.2546 193.781C72.8592 194.961 72.9163 196.062 73.426 197.086C73.9356 198.11 74.7566 198.811 75.8889 199.191C77.0212 199.57 78.0992 199.505 79.1229 198.996C80.1465 198.486 80.8561 197.642 81.2515 196.462C81.6468 195.283 81.5897 194.181 81.0801 193.157Z" fill="white"/>
<path d="M63.4311 181.807L63.022 184.251L67.6215 186.69L69.4153 184.98L71.8716 186.283L61.7135 195.681L58.8945 194.186L60.9582 180.496L63.4311 181.807ZM65.7684 188.432L62.6032 186.754L61.6857 192.308L65.7684 188.432Z" fill="white"/>
<path d="M53.7524 175.227L53.1931 180.439L54.7732 181.598L57.4543 177.941L59.531 179.464L51.8075 189.998L47.594 186.908C46.6209 186.195 46.0433 185.247 45.8613 184.064C45.6793 182.882 45.9414 181.809 46.6475 180.846C47.1256 180.194 47.7562 179.723 48.5394 179.434C49.3151 179.154 50.1119 179.098 50.9299 179.266L51.5102 173.583L53.7524 175.227ZM51.1542 186.534L53.4381 183.419L51.3012 181.852C50.91 181.565 50.4636 181.469 49.962 181.564C49.4531 181.669 49.0405 181.937 48.7242 182.369C48.4079 182.8 48.2798 183.269 48.3401 183.776C48.4003 184.283 48.6261 184.68 49.0173 184.967L51.1542 186.534Z" fill="white"/>
<path d="M37.083 177.878C35.8131 176.614 35.198 175.116 35.2375 173.383C35.2682 171.641 35.9329 170.118 37.2314 168.813C38.5299 167.507 40.05 166.835 41.7915 166.795C43.5243 166.747 45.0256 167.355 46.2955 168.618L49.973 172.277L40.7605 181.536L37.083 177.878ZM44.5583 170.364C43.7558 169.566 42.84 169.181 41.8109 169.21C40.773 169.248 39.8286 169.694 38.9775 170.55C38.1264 171.405 37.689 172.348 37.6653 173.377C37.6328 174.415 38.0177 175.333 38.8203 176.132L40.6722 177.974L46.4103 172.207L44.5583 170.364Z" fill="white"/>
</svg>
