<svg width="3910" height="1558" viewBox="0 0 3910 1558" fill="none" xmlns="http://www.w3.org/2000/svg">
<path d="M2615.08 945.433C2603.51 949.167 2597.13 961.588 2601.31 972.995C2645.58 1093.73 2729.89 1195.95 2840.51 1262.37C2957.44 1332.58 3095.84 1358.03 3230.09 1334.03C3364.35 1310.03 3485.36 1238.19 3570.72 1131.83C3656.07 1025.46 3700 891.764 3694.35 755.499C3688.71 619.233 3633.88 489.628 3540.02 390.682C3446.16 291.736 3319.63 230.151 3183.85 217.332C3048.07 204.513 2912.25 241.328 2801.53 320.959C2696.77 396.3 2621.2 505.141 2587.07 629.123C2583.84 640.838 2591.24 652.688 2603.07 655.454L2653.42 667.225C2665.25 669.991 2677.03 662.624 2680.35 650.935C2709.15 549.484 2771.45 460.488 2857.41 398.661C2949.34 332.544 3062.12 301.977 3174.85 312.62C3287.59 323.264 3392.65 374.397 3470.58 456.552C3548.51 538.707 3594.04 646.318 3598.72 759.459C3603.41 872.6 3566.94 983.606 3496.07 1071.92C3425.19 1160.24 3324.72 1219.89 3213.25 1239.81C3101.78 1259.74 2986.86 1238.61 2889.78 1180.32C2799 1125.81 2729.56 1042.27 2692.47 943.545C2688.2 932.171 2675.85 925.803 2664.28 929.538L2615.08 945.433Z" fill="#D9D9D9"/>
<g filter="url(#filter0_d_6806_6941)">
<path d="M2633.59 938.985C2619.82 943.419 2612.94 945.635 2608.4 950.355C2604.6 954.312 2601.89 960.115 2601.3 965.573C2600.59 972.082 2603.13 978.331 2608.19 990.83C2629.65 1043.72 2659 1093.05 2695.26 1137.12C2703.83 1147.54 2708.11 1152.75 2714.17 1155.23C2719.25 1157.31 2725.64 1157.7 2730.94 1156.24C2737.25 1154.5 2742.48 1149.51 2752.94 1139.53L2761.99 1130.89C2772.52 1120.84 2777.79 1115.81 2779.88 1110.32C2781.84 1105.19 2782.15 1100.51 2780.91 1095.17C2779.58 1089.44 2774.63 1083.24 2764.74 1070.84C2738.14 1037.49 2716.22 1000.66 2699.59 961.376C2693.41 946.764 2690.31 939.458 2685.92 935.558C2681.81 931.913 2677.55 929.963 2672.11 929.235C2666.28 928.455 2659.36 930.687 2645.5 935.15L2633.59 938.985Z" fill="#528F49"/>
</g>
<path d="M194.737 1077.61C147.334 1077.61 108.045 1067.57 76.8698 1047.5C45.6948 1027.43 23.9151 1000.31 11.5305 966.147L109.539 909.136C126.195 948.852 155.661 968.71 197.94 968.71C232.958 968.71 250.467 958.674 250.467 938.602C250.467 925.364 240.432 914.687 220.36 906.573C211.819 903.157 193.029 897.392 163.989 889.278C122.992 877.32 90.5356 860.665 66.6205 839.312C42.7055 817.533 30.7479 787.425 30.7479 748.99C30.7479 707.566 45.4813 674.042 74.9481 648.419C104.842 622.796 141.996 609.984 186.409 609.984C223.99 609.984 257.3 618.739 286.34 636.248C315.38 653.757 337.587 679.167 352.961 712.477L256.873 768.848C242.781 735.538 219.506 718.883 187.05 718.883C173.384 718.883 162.921 721.659 155.661 727.21C148.829 732.762 145.412 739.809 145.412 748.35C145.412 758.172 150.537 766.499 160.786 773.332C171.462 780.165 191.961 788.066 222.282 797.034C244.062 803.44 261.571 809.418 274.81 814.97C288.048 820.522 302.568 828.636 318.369 839.312C334.17 849.562 345.914 863.014 353.601 879.669C361.288 895.897 365.132 915.114 365.132 937.321C365.132 981.308 349.544 1015.69 318.369 1040.45C287.194 1065.22 245.983 1077.61 194.737 1077.61ZM634.151 747.709H740.488V1068H634.151V1035.97C614.934 1063.3 585.253 1076.97 545.11 1076.97C510.519 1076.97 482.12 1065.22 459.913 1041.74C438.133 1017.82 427.243 983.657 427.243 939.243V747.709H533.58V925.791C533.58 942.446 537.85 955.044 546.391 963.585C555.359 972.126 567.103 976.397 581.623 976.397C598.278 976.397 611.09 971.486 620.058 961.663C629.453 951.414 634.151 936.894 634.151 918.104V747.709ZM927.647 841.234C927.647 847.213 932.986 852.124 943.662 855.967C954.765 859.811 968.004 863.441 983.378 866.857C999.179 870.274 1014.77 875.185 1030.14 881.591C1045.94 887.569 1059.18 898.032 1069.86 912.979C1080.96 927.926 1086.51 946.717 1086.51 969.35C1086.51 1006.08 1072.85 1033.2 1045.51 1050.7C1018.18 1068.21 985.727 1076.97 948.146 1076.97C876.401 1076.97 828.571 1051.56 804.656 1000.74L897.54 953.976C905.654 977.464 922.309 989.208 947.506 989.208C966.723 989.208 976.332 983.443 976.332 971.913C976.332 965.934 970.994 961.023 960.317 957.179C949.641 953.336 936.616 949.492 921.242 945.649C905.868 941.805 890.494 936.681 875.12 930.275C859.746 923.869 846.721 913.62 836.044 899.527C825.368 885.007 820.03 867.284 820.03 846.359C820.03 812.194 832.628 785.717 857.824 766.927C883.02 748.136 913.341 738.741 948.787 738.741C1011.99 738.741 1055.98 763.51 1080.75 813.048L991.065 853.405C981.67 835.042 968.431 825.86 951.349 825.86C935.548 825.86 927.647 830.985 927.647 841.234ZM1342.76 849.562H1276.14V942.446C1276.14 956.539 1281.27 965.293 1291.52 968.71C1301.77 972.126 1318.85 973.194 1342.76 971.913V1068C1279.13 1075.69 1234.29 1069.92 1208.24 1050.7C1182.62 1031.06 1169.81 995.828 1169.81 945.008V849.562H1121.76V747.709H1169.81V690.057L1276.14 658.028V747.709H1342.76V849.562ZM1638.03 747.709H1744.36V1068H1638.03V1038.53C1616.25 1064.16 1585.93 1076.97 1547.07 1076.97C1504.36 1076.97 1468.49 1060.95 1439.45 1028.92C1410.83 996.468 1396.53 956.112 1396.53 907.855C1396.53 859.597 1410.83 819.454 1439.45 787.425C1468.49 754.969 1504.36 738.741 1547.07 738.741C1585.93 738.741 1616.25 751.553 1638.03 777.176V747.709ZM1522.08 958.461C1534.47 971.272 1550.7 977.678 1570.77 977.678C1590.84 977.678 1607.07 971.272 1619.45 958.461C1631.84 945.649 1638.03 928.78 1638.03 907.855C1638.03 886.929 1631.84 870.06 1619.45 857.249C1607.07 844.437 1590.84 838.031 1570.77 838.031C1550.7 838.031 1534.47 844.437 1522.08 857.249C1509.7 870.06 1503.51 886.929 1503.51 907.855C1503.51 928.78 1509.7 945.649 1522.08 958.461ZM1927.72 703.509C1915.76 715.466 1901.46 721.445 1884.8 721.445C1868.15 721.445 1853.63 715.466 1841.24 703.509C1829.28 691.124 1823.31 676.605 1823.31 659.949C1823.31 643.294 1829.28 628.988 1841.24 617.03C1853.63 605.073 1868.15 599.094 1884.8 599.094C1901.46 599.094 1915.76 605.073 1927.72 617.03C1940.11 628.988 1946.3 643.294 1946.3 659.949C1946.3 676.605 1940.11 691.124 1927.72 703.509ZM1831.63 1068V747.709H1937.97V1068H1831.63ZM2220.29 738.741C2254.88 738.741 2283.06 750.698 2304.84 774.614C2327.05 798.102 2338.15 832.052 2338.15 876.466V1068H2231.82V889.918C2231.82 873.263 2227.33 860.665 2218.36 852.124C2209.82 843.583 2198.29 839.312 2183.77 839.312C2167.12 839.312 2154.09 844.437 2144.7 854.686C2135.73 864.509 2131.25 878.815 2131.25 897.605V1068H2024.91V747.709H2131.25V779.738C2150.46 752.407 2180.14 738.741 2220.29 738.741ZM2629.68 802.159C2658.3 811.127 2681.36 826.501 2698.87 848.28C2716.38 870.06 2725.13 896.324 2725.13 927.072C2725.13 975.329 2709.33 1012.48 2677.73 1038.53C2646.12 1064.58 2607.05 1077.61 2560.5 1077.61C2523.35 1077.61 2490.25 1069.07 2461.21 1051.99C2432.6 1034.9 2411.89 1009.71 2399.07 976.397L2499 919.385C2508.4 950.56 2528.9 966.147 2560.5 966.147C2576.73 966.147 2589.11 962.304 2597.65 954.617C2606.62 946.93 2611.11 936.681 2611.11 923.869C2611.11 911.057 2606.62 901.022 2597.65 893.762C2589.11 886.075 2576.73 882.231 2560.5 882.231H2536.16L2491.96 816.892L2563.7 729.132H2413.17V619.593H2704.63V709.915L2629.68 802.159ZM2947.32 762.442C2990.88 767.994 3025.68 785.076 3051.73 813.689C3077.78 841.875 3090.81 877.107 3090.81 919.385C3090.81 965.934 3075.22 1003.94 3044.04 1033.41C3012.87 1062.88 2971.87 1077.61 2921.05 1077.61C2870.23 1077.61 2829.24 1062.88 2798.06 1033.41C2766.89 1003.94 2751.3 965.934 2751.3 919.385C2751.3 884.367 2760.69 853.405 2779.48 826.501L2912.08 619.593H3042.12L2947.32 762.442ZM2921.05 972.553C2936.85 972.553 2949.88 967.856 2960.13 958.461C2970.8 949.065 2976.14 936.04 2976.14 919.385C2976.14 902.303 2971.02 889.064 2960.77 879.669C2950.52 870.274 2937.28 865.576 2921.05 865.576C2904.83 865.576 2891.59 870.274 2881.34 879.669C2871.09 889.064 2865.96 902.303 2865.96 919.385C2865.96 936.467 2871.09 949.706 2881.34 959.101C2891.59 968.069 2904.83 972.553 2921.05 972.553ZM3438.37 1014.19C3405.91 1056.47 3360.43 1077.61 3301.92 1077.61C3243.42 1077.61 3197.72 1056.47 3164.84 1014.19C3132.38 971.486 3116.16 914.687 3116.16 843.796C3116.16 772.905 3132.38 716.321 3164.84 674.042C3197.72 631.337 3243.42 609.984 3301.92 609.984C3360.43 609.984 3405.91 631.337 3438.37 674.042C3471.25 716.321 3487.69 772.905 3487.69 843.796C3487.69 914.687 3471.25 971.486 3438.37 1014.19ZM3230.82 843.796C3230.82 925.364 3254.52 966.147 3301.92 966.147C3349.33 966.147 3373.03 925.364 3373.03 843.796C3373.03 762.229 3349.33 721.445 3301.92 721.445C3254.52 721.445 3230.82 762.229 3230.82 843.796Z" fill="#528F49"/>
<defs>
<filter id="filter0_d_6806_6941" x="2597.18" y="929.082" width="188.469" height="236.033" filterUnits="userSpaceOnUse" color-interpolation-filters="sRGB">
<feFlood flood-opacity="0" result="BackgroundImageFix"/>
<feColorMatrix in="SourceAlpha" type="matrix" values="0 0 0 0 0 0 0 0 0 0 0 0 0 0 0 0 0 0 127 0" result="hardAlpha"/>
<feOffset dy="4"/>
<feGaussianBlur stdDeviation="2"/>
<feComposite in2="hardAlpha" operator="out"/>
<feColorMatrix type="matrix" values="0 0 0 0 0 0 0 0 0 0 0 0 0 0 0 0 0 0 0.25 0"/>
<feBlend mode="normal" in2="BackgroundImageFix" result="effect1_dropShadow_6806_6941"/>
<feBlend mode="normal" in="SourceGraphic" in2="effect1_dropShadow_6806_6941" result="shape"/>
</filter>
</defs>
</svg>
